<svg xmlns="http://www.w3.org/2000/svg" xmlns:xlink="http://www.w3.org/1999/xlink" id="processonSvg1000" viewBox="228.57142857142833 158.33333206176758 1207.6326530612246 1185.6507949223605" width="1207.6326530612246" height="1185.6507949223605"><defs id="ProcessOnDefs1001"><pattern id="ProcessOnPattern1013" patternUnits="userSpaceOnUse" width="75.0" height="75.0" patternTransform="matrix(1.0,0.0,0.0,1.0,0.0,0.0)"><svg version="1.1" id="图层_1" xmlns="http://www.w3.org/2000/svg" xmlns:xlink="http://www.w3.org/1999/xlink" x="0px" y="0px" width="75px" height="75px" viewBox="0 0 75 75" enable-background="new 0 0 75 75" xml:space="preserve"> <g id="Layer_1"> <polygon fill="#FFFFFF" points="37.5,73.789 69.499,55.619 69.499,19.28 37.5,37.45 "/> <polygon fill="#FFFFFF" points="5.502,55.519 37.5,73.688 37.5,37.45 5.502,19.28 "/> <polygon fill="#FFFFFF" points="69.297,19.28 37.5,1.212 5.703,19.28 37.5,37.349 "/> <polygon fill="#FFFFFF" points="37.5,36.238 67.479,19.28 67.378,19.28 "/> <polygon fill="#FFFFFF" points="7.621,19.28 7.521,19.28 37.5,36.238 37.5,36.238 "/> <polygon fill="#FFFFFF" points="37.5,36.238 37.5,36.238 37.5,36.238 "/> <path fill="#444444" d="M69.499,18.069L37.5,0L5.502,18.069l-1.01,0.605v1.211v36.339l31.999,18.169L37.5,75l1.01-0.606 l31.998-18.169V19.886v-1.211L69.499,18.069z M68.489,55.014L38.51,71.972V37.954l29.979-16.958V55.014z M36.491,71.972 L6.511,55.014V20.997l29.98,16.958V71.972z M7.621,19.28L37.5,2.322L67.378,19.28l0,0L37.5,36.238l0,0l0,0L7.621,19.28L7.621,19.28 z"/> <polygon fill="#AE1F23" points="37.602,57.033 54.862,47.241 54.862,27.759 37.602,37.551 "/> <polygon fill="#AE1F23" points="20.138,47.241 37.399,57.033 37.399,37.551 20.138,27.759 "/> <polygon fill="#AE1F23" points="54.66,27.558 37.5,17.766 20.34,27.558 37.5,37.248 "/> <polygon fill="#96BF3D" points="37.5,36.238 52.944,27.558 52.944,27.558 "/> <polygon fill="#96BF3D" points="22.057,27.558 22.057,27.558 37.5,36.238 37.5,36.238 "/> <polygon fill="#96BF3D" points="37.5,36.238 37.5,36.238 37.5,36.238 "/> <path fill="#FFFFFF" d="M54.963,26.346L37.5,16.454l-17.463,9.892l-1.009,0.605v1.211v19.785l17.463,9.892l1.009,0.605l1.01-0.605 l17.462-9.892V28.063v-1.211L54.963,26.346z M53.953,46.736L38.51,55.519V38.055l15.443-8.781V46.736z M36.491,55.519 l-15.444-8.782V29.273l15.444,8.781V55.519z M22.057,27.558L37.5,18.775l15.444,8.681l0,0L37.5,36.238l0,0l0,0L22.057,27.558 L22.057,27.558z"/> </g> </svg> </pattern><pattern id="ProcessOnPattern1019" patternUnits="userSpaceOnUse" width="75.0" height="75.0" patternTransform="matrix(1.0,0.0,0.0,1.0,0.0,0.0)"><svg version="1.1" id="Layer_1" xmlns="http://www.w3.org/2000/svg" xmlns:xlink="http://www.w3.org/1999/xlink" x="0px" y="0px" width="75px" height="75px" viewBox="0 0 75 75" enable-background="new 0 0 75 75" xml:space="preserve"> <polygon fill="#FFFFFF" points="37.5,73.788 69.499,55.618 69.499,19.279 37.5,37.449 "/> <polygon fill="#FFFFFF" points="5.502,55.518 37.5,73.688 37.5,37.449 5.502,19.279 "/> <polygon fill="#FFFFFF" points="69.297,19.279 37.5,1.211 5.703,19.279 37.5,37.349 "/> <polygon fill="#FFFFFF" points="37.5,36.238 67.479,19.279 67.379,19.279 "/> <polygon fill="#FFFFFF" points="7.621,19.279 7.521,19.279 37.5,36.238 37.5,36.238 "/> <polygon fill="#FFFFFF" points="37.5,36.238 37.5,36.238 37.5,36.238 "/> <path fill="#444444" d="M69.499,18.068L37.5,0L5.502,18.068l-1.01,0.605v1.212v36.339l31.999,18.169L37.5,75l1.01-0.606 l31.998-18.169V19.886v-1.212L69.499,18.068z M68.489,55.013L38.51,71.971V37.954l29.979-16.958V55.013z M36.491,71.971 L6.511,55.013V20.996l29.98,16.958V71.971z M7.621,19.279L37.5,2.321l29.879,16.958l0,0L37.5,36.238l0,0l0,0L7.621,19.279 L7.621,19.279z"/> <polygon fill="#4090D7" points="37.602,57.031 54.862,47.24 54.862,27.759 37.602,37.55 "/> <polygon fill="#4090D7" points="20.138,47.24 37.399,57.031 37.399,37.55 20.138,27.759 "/> <polygon fill="#4090D7" points="54.66,27.557 37.5,17.766 20.34,27.557 37.5,37.247 "/> <polygon fill="#96BF3D" points="37.5,36.238 52.944,27.557 52.944,27.557 "/> <polygon fill="#96BF3D" points="22.056,27.557 22.056,27.557 37.5,36.238 37.5,36.238 "/> <polygon fill="#96BF3D" points="37.5,36.238 37.5,36.238 37.5,36.238 "/> <path fill="#FFFFFF" d="M54.963,26.346L37.5,16.453l-17.463,9.893l-1.01,0.605v1.211v19.785l17.464,9.892l1.009,0.606l1.01-0.606 l17.463-9.892V28.062v-1.211L54.963,26.346z M53.953,46.735L38.51,55.518V38.055l15.443-8.782V46.735z M36.491,55.518l-15.444-8.782 V29.273l15.444,8.781V55.518z M22.056,27.557L37.5,18.774l15.444,8.682l0,0L37.5,36.238l0,0l0,0L22.056,27.557L22.056,27.557z"/> </svg> </pattern><pattern id="ProcessOnPattern1025" patternUnits="userSpaceOnUse" width="75.0" height="75.0" patternTransform="matrix(1.0,0.0,0.0,1.0,0.0,0.0)"><svg version="1.1" id="图层_1" xmlns="http://www.w3.org/2000/svg" xmlns:xlink="http://www.w3.org/1999/xlink" x="0px" y="0px" width="75px" height="75px" viewBox="0 0 75 75" enable-background="new 0 0 75 75" xml:space="preserve"> <g id="Layer_1"> <polygon fill="#FFFFFF" points="37.5,73.789 69.499,55.619 69.499,19.28 37.5,37.45 "/> <polygon fill="#FFFFFF" points="5.502,55.519 37.5,73.688 37.5,37.45 5.502,19.28 "/> <polygon fill="#FFFFFF" points="69.297,19.28 37.5,1.212 5.703,19.28 37.5,37.349 "/> <polygon fill="#FFFFFF" points="37.5,36.238 67.479,19.28 67.378,19.28 "/> <polygon fill="#FFFFFF" points="7.621,19.28 7.521,19.28 37.5,36.238 37.5,36.238 "/> <polygon fill="#FFFFFF" points="37.5,36.238 37.5,36.238 37.5,36.238 "/> <path fill="#444444" d="M69.499,18.069L37.5,0L5.502,18.069l-1.01,0.605v1.211v36.339l31.999,18.169L37.5,75l1.01-0.606 l31.998-18.169V19.886v-1.211L69.499,18.069z M68.489,55.014L38.51,71.972V37.954l29.979-16.958V55.014z M36.491,71.972 L6.511,55.014V20.997l29.98,16.958V71.972z M7.621,19.28L37.5,2.322L67.378,19.28l0,0L37.5,36.238l0,0l0,0L7.621,19.28L7.621,19.28 z"/> <polygon fill="#115193" points="37.602,57.033 54.862,47.241 54.862,27.759 37.602,37.551 "/> <polygon fill="#115193" points="20.138,47.241 37.399,57.033 37.399,37.551 20.138,27.759 "/> <polygon fill="#115193" points="54.66,27.558 37.5,17.766 20.34,27.558 37.5,37.248 "/> <polygon fill="#96BF3D" points="37.5,36.238 52.944,27.558 52.944,27.558 "/> <polygon fill="#96BF3D" points="22.057,27.558 22.057,27.558 37.5,36.238 37.5,36.238 "/> <polygon fill="#96BF3D" points="37.5,36.238 37.5,36.238 37.5,36.238 "/> <path fill="#FFFFFF" d="M54.963,26.346L37.5,16.454l-17.463,9.892l-1.009,0.605v1.211v19.785l17.463,9.892l1.009,0.605l1.01-0.605 l17.462-9.892V28.063v-1.211L54.963,26.346z M53.953,46.736L38.51,55.519V38.055l15.443-8.781V46.736z M36.491,55.519 l-15.444-8.782V29.273l15.444,8.781V55.519z M22.057,27.558L37.5,18.775l15.444,8.681l0,0L37.5,36.238l0,0l0,0L22.057,27.558 L22.057,27.558z"/> </g> </svg> </pattern><pattern id="ProcessOnPattern1030" patternUnits="userSpaceOnUse" width="75.0" height="75.0" patternTransform="matrix(1.0,0.0,0.0,1.0,0.0,0.0)"><svg version="1.1" id="图层_1" xmlns="http://www.w3.org/2000/svg" xmlns:xlink="http://www.w3.org/1999/xlink" x="0px" y="0px" width="75px" height="75px" viewBox="0 0 75 75" enable-background="new 0 0 75 75" xml:space="preserve"> <g id="Layer_1"> <polygon fill="#FFFFFF" points="37.5,73.789 69.499,55.619 69.499,19.28 37.5,37.45 "/> <polygon fill="#FFFFFF" points="5.502,55.519 37.5,73.688 37.5,37.45 5.502,19.28 "/> <polygon fill="#FFFFFF" points="69.297,19.28 37.5,1.212 5.703,19.28 37.5,37.349 "/> <polygon fill="#FFFFFF" points="37.5,36.238 67.479,19.28 67.378,19.28 "/> <polygon fill="#FFFFFF" points="7.621,19.28 7.521,19.28 37.5,36.238 37.5,36.238 "/> <polygon fill="#FFFFFF" points="37.5,36.238 37.5,36.238 37.5,36.238 "/> <path fill="#444444" d="M69.499,18.069L37.5,0L5.502,18.069l-1.01,0.605v1.211v36.339l31.999,18.169L37.5,75l1.01-0.606 l31.998-18.169V19.886v-1.211L69.499,18.069z M68.489,55.014L38.51,71.972V37.954l29.979-16.958V55.014z M36.491,71.972 L6.511,55.014V20.997l29.98,16.958V71.972z M7.621,19.28L37.5,2.322L67.378,19.28l0,0L37.5,36.238l0,0l0,0L7.621,19.28L7.621,19.28 z"/> <polygon fill="#AE1F23" points="37.602,57.033 54.862,47.241 54.862,27.759 37.602,37.551 "/> <polygon fill="#AE1F23" points="20.138,47.241 37.399,57.033 37.399,37.551 20.138,27.759 "/> <polygon fill="#AE1F23" points="54.66,27.558 37.5,17.766 20.34,27.558 37.5,37.248 "/> <polygon fill="#96BF3D" points="37.5,36.238 52.944,27.558 52.944,27.558 "/> <polygon fill="#96BF3D" points="22.057,27.558 22.057,27.558 37.5,36.238 37.5,36.238 "/> <polygon fill="#96BF3D" points="37.5,36.238 37.5,36.238 37.5,36.238 "/> <path fill="#FFFFFF" d="M54.963,26.346L37.5,16.454l-17.463,9.892l-1.009,0.605v1.211v19.785l17.463,9.892l1.009,0.605l1.01-0.605 l17.462-9.892V28.063v-1.211L54.963,26.346z M53.953,46.736L38.51,55.519V38.055l15.443-8.781V46.736z M36.491,55.519 l-15.444-8.782V29.273l15.444,8.781V55.519z M22.057,27.558L37.5,18.775l15.444,8.681l0,0L37.5,36.238l0,0l0,0L22.057,27.558 L22.057,27.558z"/> </g> </svg> </pattern><pattern id="ProcessOnPattern1035" patternUnits="userSpaceOnUse" width="75.0" height="75.0" patternTransform="matrix(1.0,0.0,0.0,1.0,0.0,0.0)"><svg version="1.1" id="图层_1" xmlns="http://www.w3.org/2000/svg" xmlns:xlink="http://www.w3.org/1999/xlink" x="0px" y="0px" width="75px" height="75px" viewBox="0 0 75 75" enable-background="new 0 0 75 75" xml:space="preserve"> <g id="Layer_1"> <polygon fill="#FFFFFF" points="37.5,73.789 69.499,55.619 69.499,19.28 37.5,37.45 "/> <polygon fill="#FFFFFF" points="5.502,55.519 37.5,73.688 37.5,37.45 5.502,19.28 "/> <polygon fill="#FFFFFF" points="69.297,19.28 37.5,1.212 5.703,19.28 37.5,37.349 "/> <polygon fill="#FFFFFF" points="37.5,36.238 67.479,19.28 67.378,19.28 "/> <polygon fill="#FFFFFF" points="7.621,19.28 7.521,19.28 37.5,36.238 37.5,36.238 "/> <polygon fill="#FFFFFF" points="37.5,36.238 37.5,36.238 37.5,36.238 "/> <path fill="#444444" d="M69.499,18.069L37.5,0L5.502,18.069l-1.01,0.605v1.211v36.339l31.999,18.169L37.5,75l1.01-0.606 l31.998-18.169V19.886v-1.211L69.499,18.069z M68.489,55.014L38.51,71.972V37.954l29.979-16.958V55.014z M36.491,71.972 L6.511,55.014V20.997l29.98,16.958V71.972z M7.621,19.28L37.5,2.322L67.378,19.28l0,0L37.5,36.238l0,0l0,0L7.621,19.28L7.621,19.28 z"/> <polygon fill="#AE1F23" points="37.602,57.033 54.862,47.241 54.862,27.759 37.602,37.551 "/> <polygon fill="#AE1F23" points="20.138,47.241 37.399,57.033 37.399,37.551 20.138,27.759 "/> <polygon fill="#AE1F23" points="54.66,27.558 37.5,17.766 20.34,27.558 37.5,37.248 "/> <polygon fill="#96BF3D" points="37.5,36.238 52.944,27.558 52.944,27.558 "/> <polygon fill="#96BF3D" points="22.057,27.558 22.057,27.558 37.5,36.238 37.5,36.238 "/> <polygon fill="#96BF3D" points="37.5,36.238 37.5,36.238 37.5,36.238 "/> <path fill="#FFFFFF" d="M54.963,26.346L37.5,16.454l-17.463,9.892l-1.009,0.605v1.211v19.785l17.463,9.892l1.009,0.605l1.01-0.605 l17.462-9.892V28.063v-1.211L54.963,26.346z M53.953,46.736L38.51,55.519V38.055l15.443-8.781V46.736z M36.491,55.519 l-15.444-8.782V29.273l15.444,8.781V55.519z M22.057,27.558L37.5,18.775l15.444,8.681l0,0L37.5,36.238l0,0l0,0L22.057,27.558 L22.057,27.558z"/> </g> </svg> </pattern><pattern id="ProcessOnPattern1040" patternUnits="userSpaceOnUse" width="75.0" height="75.0" patternTransform="matrix(1.0,0.0,0.0,1.0,0.0,0.0)"><svg version="1.1" id="图层_1" xmlns="http://www.w3.org/2000/svg" xmlns:xlink="http://www.w3.org/1999/xlink" x="0px" y="0px" width="75px" height="75px" viewBox="0 0 75 75" enable-background="new 0 0 75 75" xml:space="preserve"> <g id="Layer_1"> <polygon fill="#FFFFFF" points="37.5,73.789 69.499,55.619 69.499,19.28 37.5,37.45 "/> <polygon fill="#FFFFFF" points="5.502,55.519 37.5,73.688 37.5,37.45 5.502,19.28 "/> <polygon fill="#FFFFFF" points="69.297,19.28 37.5,1.212 5.703,19.28 37.5,37.349 "/> <polygon fill="#FFFFFF" points="37.5,36.238 67.479,19.28 67.378,19.28 "/> <polygon fill="#FFFFFF" points="7.621,19.28 7.521,19.28 37.5,36.238 37.5,36.238 "/> <polygon fill="#FFFFFF" points="37.5,36.238 37.5,36.238 37.5,36.238 "/> <path fill="#444444" d="M69.499,18.069L37.5,0L5.502,18.069l-1.01,0.605v1.211v36.339l31.999,18.169L37.5,75l1.01-0.606 l31.998-18.169V19.886v-1.211L69.499,18.069z M68.489,55.014L38.51,71.972V37.954l29.979-16.958V55.014z M36.491,71.972 L6.511,55.014V20.997l29.98,16.958V71.972z M7.621,19.28L37.5,2.322L67.378,19.28l0,0L37.5,36.238l0,0l0,0L7.621,19.28L7.621,19.28 z"/> <polygon fill="#AE1F23" points="37.602,57.033 54.862,47.241 54.862,27.759 37.602,37.551 "/> <polygon fill="#AE1F23" points="20.138,47.241 37.399,57.033 37.399,37.551 20.138,27.759 "/> <polygon fill="#AE1F23" points="54.66,27.558 37.5,17.766 20.34,27.558 37.5,37.248 "/> <polygon fill="#96BF3D" points="37.5,36.238 52.944,27.558 52.944,27.558 "/> <polygon fill="#96BF3D" points="22.057,27.558 22.057,27.558 37.5,36.238 37.5,36.238 "/> <polygon fill="#96BF3D" points="37.5,36.238 37.5,36.238 37.5,36.238 "/> <path fill="#FFFFFF" d="M54.963,26.346L37.5,16.454l-17.463,9.892l-1.009,0.605v1.211v19.785l17.463,9.892l1.009,0.605l1.01-0.605 l17.462-9.892V28.063v-1.211L54.963,26.346z M53.953,46.736L38.51,55.519V38.055l15.443-8.781V46.736z M36.491,55.519 l-15.444-8.782V29.273l15.444,8.781V55.519z M22.057,27.558L37.5,18.775l15.444,8.681l0,0L37.5,36.238l0,0l0,0L22.057,27.558 L22.057,27.558z"/> </g> </svg> </pattern><pattern id="ProcessOnPattern1045" patternUnits="userSpaceOnUse" width="75.0" height="75.0" patternTransform="matrix(1.0,0.0,0.0,1.0,0.0,0.0)"><svg version="1.1" id="图层_1" xmlns="http://www.w3.org/2000/svg" xmlns:xlink="http://www.w3.org/1999/xlink" x="0px" y="0px" width="75px" height="75px" viewBox="0 0 75 75" enable-background="new 0 0 75 75" xml:space="preserve"> <g id="Layer_1"> <polygon fill="#FFFFFF" points="37.5,73.789 69.499,55.619 69.499,19.28 37.5,37.45 "/> <polygon fill="#FFFFFF" points="5.502,55.519 37.5,73.688 37.5,37.45 5.502,19.28 "/> <polygon fill="#FFFFFF" points="69.297,19.28 37.5,1.212 5.703,19.28 37.5,37.349 "/> <polygon fill="#FFFFFF" points="37.5,36.238 67.479,19.28 67.378,19.28 "/> <polygon fill="#FFFFFF" points="7.621,19.28 7.521,19.28 37.5,36.238 37.5,36.238 "/> <polygon fill="#FFFFFF" points="37.5,36.238 37.5,36.238 37.5,36.238 "/> <path fill="#444444" d="M69.499,18.069L37.5,0L5.502,18.069l-1.01,0.605v1.211v36.339l31.999,18.169L37.5,75l1.01-0.606 l31.998-18.169V19.886v-1.211L69.499,18.069z M68.489,55.014L38.51,71.972V37.954l29.979-16.958V55.014z M36.491,71.972 L6.511,55.014V20.997l29.98,16.958V71.972z M7.621,19.28L37.5,2.322L67.378,19.28l0,0L37.5,36.238l0,0l0,0L7.621,19.28L7.621,19.28 z"/> <polygon fill="#AE1F23" points="37.602,57.033 54.862,47.241 54.862,27.759 37.602,37.551 "/> <polygon fill="#AE1F23" points="20.138,47.241 37.399,57.033 37.399,37.551 20.138,27.759 "/> <polygon fill="#AE1F23" points="54.66,27.558 37.5,17.766 20.34,27.558 37.5,37.248 "/> <polygon fill="#96BF3D" points="37.5,36.238 52.944,27.558 52.944,27.558 "/> <polygon fill="#96BF3D" points="22.057,27.558 22.057,27.558 37.5,36.238 37.5,36.238 "/> <polygon fill="#96BF3D" points="37.5,36.238 37.5,36.238 37.5,36.238 "/> <path fill="#FFFFFF" d="M54.963,26.346L37.5,16.454l-17.463,9.892l-1.009,0.605v1.211v19.785l17.463,9.892l1.009,0.605l1.01-0.605 l17.462-9.892V28.063v-1.211L54.963,26.346z M53.953,46.736L38.51,55.519V38.055l15.443-8.781V46.736z M36.491,55.519 l-15.444-8.782V29.273l15.444,8.781V55.519z M22.057,27.558L37.5,18.775l15.444,8.681l0,0L37.5,36.238l0,0l0,0L22.057,27.558 L22.057,27.558z"/> </g> </svg> </pattern><pattern id="ProcessOnPattern1050" patternUnits="userSpaceOnUse" width="75.0" height="75.0" patternTransform="matrix(1.0,0.0,0.0,1.0,0.0,0.0)"><svg version="1.1" id="图层_1" xmlns="http://www.w3.org/2000/svg" xmlns:xlink="http://www.w3.org/1999/xlink" x="0px" y="0px" width="75px" height="75px" viewBox="0 0 75 75" enable-background="new 0 0 75 75" xml:space="preserve"> <g id="Layer_1"> <polygon fill="#FFFFFF" points="37.5,73.789 69.499,55.619 69.499,19.28 37.5,37.45 "/> <polygon fill="#FFFFFF" points="5.502,55.519 37.5,73.688 37.5,37.45 5.502,19.28 "/> <polygon fill="#FFFFFF" points="69.297,19.28 37.5,1.212 5.703,19.28 37.5,37.349 "/> <polygon fill="#FFFFFF" points="37.5,36.238 67.479,19.28 67.378,19.28 "/> <polygon fill="#FFFFFF" points="7.621,19.28 7.521,19.28 37.5,36.238 37.5,36.238 "/> <polygon fill="#FFFFFF" points="37.5,36.238 37.5,36.238 37.5,36.238 "/> <path fill="#444444" d="M69.499,18.069L37.5,0L5.502,18.069l-1.01,0.605v1.211v36.339l31.999,18.169L37.5,75l1.01-0.606 l31.998-18.169V19.886v-1.211L69.499,18.069z M68.489,55.014L38.51,71.972V37.954l29.979-16.958V55.014z M36.491,71.972 L6.511,55.014V20.997l29.98,16.958V71.972z M7.621,19.28L37.5,2.322L67.378,19.28l0,0L37.5,36.238l0,0l0,0L7.621,19.28L7.621,19.28 z"/> <polygon fill="#AE1F23" points="37.602,57.033 54.862,47.241 54.862,27.759 37.602,37.551 "/> <polygon fill="#AE1F23" points="20.138,47.241 37.399,57.033 37.399,37.551 20.138,27.759 "/> <polygon fill="#AE1F23" points="54.66,27.558 37.5,17.766 20.34,27.558 37.5,37.248 "/> <polygon fill="#96BF3D" points="37.5,36.238 52.944,27.558 52.944,27.558 "/> <polygon fill="#96BF3D" points="22.057,27.558 22.057,27.558 37.5,36.238 37.5,36.238 "/> <polygon fill="#96BF3D" points="37.5,36.238 37.5,36.238 37.5,36.238 "/> <path fill="#FFFFFF" d="M54.963,26.346L37.5,16.454l-17.463,9.892l-1.009,0.605v1.211v19.785l17.463,9.892l1.009,0.605l1.01-0.605 l17.462-9.892V28.063v-1.211L54.963,26.346z M53.953,46.736L38.51,55.519V38.055l15.443-8.781V46.736z M36.491,55.519 l-15.444-8.782V29.273l15.444,8.781V55.519z M22.057,27.558L37.5,18.775l15.444,8.681l0,0L37.5,36.238l0,0l0,0L22.057,27.558 L22.057,27.558z"/> </g> </svg> </pattern><pattern id="ProcessOnPattern1055" patternUnits="userSpaceOnUse" width="75.0" height="75.0" patternTransform="matrix(1.0,0.0,0.0,1.0,0.0,0.0)"><svg version="1.1" id="图层_1" xmlns="http://www.w3.org/2000/svg" xmlns:xlink="http://www.w3.org/1999/xlink" x="0px" y="0px" width="75px" height="75px" viewBox="0 0 75 75" enable-background="new 0 0 75 75" xml:space="preserve"> <g id="Layer_1"> <polygon fill="#FFFFFF" points="37.5,73.789 69.499,55.619 69.499,19.28 37.5,37.45 "/> <polygon fill="#FFFFFF" points="5.502,55.519 37.5,73.688 37.5,37.45 5.502,19.28 "/> <polygon fill="#FFFFFF" points="69.297,19.28 37.5,1.212 5.703,19.28 37.5,37.349 "/> <polygon fill="#FFFFFF" points="37.5,36.238 67.479,19.28 67.378,19.28 "/> <polygon fill="#FFFFFF" points="7.621,19.28 7.521,19.28 37.5,36.238 37.5,36.238 "/> <polygon fill="#FFFFFF" points="37.5,36.238 37.5,36.238 37.5,36.238 "/> <path fill="#444444" d="M69.499,18.069L37.5,0L5.502,18.069l-1.01,0.605v1.211v36.339l31.999,18.169L37.5,75l1.01-0.606 l31.998-18.169V19.886v-1.211L69.499,18.069z M68.489,55.014L38.51,71.972V37.954l29.979-16.958V55.014z M36.491,71.972 L6.511,55.014V20.997l29.98,16.958V71.972z M7.621,19.28L37.5,2.322L67.378,19.28l0,0L37.5,36.238l0,0l0,0L7.621,19.28L7.621,19.28 z"/> <polygon fill="#AE1F23" points="37.602,57.033 54.862,47.241 54.862,27.759 37.602,37.551 "/> <polygon fill="#AE1F23" points="20.138,47.241 37.399,57.033 37.399,37.551 20.138,27.759 "/> <polygon fill="#AE1F23" points="54.66,27.558 37.5,17.766 20.34,27.558 37.5,37.248 "/> <polygon fill="#96BF3D" points="37.5,36.238 52.944,27.558 52.944,27.558 "/> <polygon fill="#96BF3D" points="22.057,27.558 22.057,27.558 37.5,36.238 37.5,36.238 "/> <polygon fill="#96BF3D" points="37.5,36.238 37.5,36.238 37.5,36.238 "/> <path fill="#FFFFFF" d="M54.963,26.346L37.5,16.454l-17.463,9.892l-1.009,0.605v1.211v19.785l17.463,9.892l1.009,0.605l1.01-0.605 l17.462-9.892V28.063v-1.211L54.963,26.346z M53.953,46.736L38.51,55.519V38.055l15.443-8.781V46.736z M36.491,55.519 l-15.444-8.782V29.273l15.444,8.781V55.519z M22.057,27.558L37.5,18.775l15.444,8.681l0,0L37.5,36.238l0,0l0,0L22.057,27.558 L22.057,27.558z"/> </g> </svg> </pattern><pattern id="ProcessOnPattern1060" patternUnits="userSpaceOnUse" width="75.0" height="75.0" patternTransform="matrix(1.0,0.0,0.0,1.0,0.0,0.0)"><svg version="1.1" id="图层_1" xmlns="http://www.w3.org/2000/svg" xmlns:xlink="http://www.w3.org/1999/xlink" x="0px" y="0px" width="75px" height="75px" viewBox="0 0 75 75" enable-background="new 0 0 75 75" xml:space="preserve"> <g id="Layer_1"> <polygon fill="#FFFFFF" points="37.5,73.789 69.499,55.619 69.499,19.28 37.5,37.45 "/> <polygon fill="#FFFFFF" points="5.502,55.519 37.5,73.688 37.5,37.45 5.502,19.28 "/> <polygon fill="#FFFFFF" points="69.297,19.28 37.5,1.212 5.703,19.28 37.5,37.349 "/> <polygon fill="#FFFFFF" points="37.5,36.238 67.479,19.28 67.378,19.28 "/> <polygon fill="#FFFFFF" points="7.621,19.28 7.521,19.28 37.5,36.238 37.5,36.238 "/> <polygon fill="#FFFFFF" points="37.5,36.238 37.5,36.238 37.5,36.238 "/> <path fill="#444444" d="M69.499,18.069L37.5,0L5.502,18.069l-1.01,0.605v1.211v36.339l31.999,18.169L37.5,75l1.01-0.606 l31.998-18.169V19.886v-1.211L69.499,18.069z M68.489,55.014L38.51,71.972V37.954l29.979-16.958V55.014z M36.491,71.972 L6.511,55.014V20.997l29.98,16.958V71.972z M7.621,19.28L37.5,2.322L67.378,19.28l0,0L37.5,36.238l0,0l0,0L7.621,19.28L7.621,19.28 z"/> <polygon fill="#AE1F23" points="37.602,57.033 54.862,47.241 54.862,27.759 37.602,37.551 "/> <polygon fill="#AE1F23" points="20.138,47.241 37.399,57.033 37.399,37.551 20.138,27.759 "/> <polygon fill="#AE1F23" points="54.66,27.558 37.5,17.766 20.34,27.558 37.5,37.248 "/> <polygon fill="#96BF3D" points="37.5,36.238 52.944,27.558 52.944,27.558 "/> <polygon fill="#96BF3D" points="22.057,27.558 22.057,27.558 37.5,36.238 37.5,36.238 "/> <polygon fill="#96BF3D" points="37.5,36.238 37.5,36.238 37.5,36.238 "/> <path fill="#FFFFFF" d="M54.963,26.346L37.5,16.454l-17.463,9.892l-1.009,0.605v1.211v19.785l17.463,9.892l1.009,0.605l1.01-0.605 l17.462-9.892V28.063v-1.211L54.963,26.346z M53.953,46.736L38.51,55.519V38.055l15.443-8.781V46.736z M36.491,55.519 l-15.444-8.782V29.273l15.444,8.781V55.519z M22.057,27.558L37.5,18.775l15.444,8.681l0,0L37.5,36.238l0,0l0,0L22.057,27.558 L22.057,27.558z"/> </g> </svg> </pattern><pattern id="ProcessOnPattern1065" patternUnits="userSpaceOnUse" width="75.0" height="75.0" patternTransform="matrix(1.0,0.0,0.0,1.0,0.0,0.0)"><svg version="1.1" id="Layer_1" xmlns="http://www.w3.org/2000/svg" xmlns:xlink="http://www.w3.org/1999/xlink" x="0px" y="0px" width="75px" height="75px" viewBox="0 0 75 75" enable-background="new 0 0 75 75" xml:space="preserve"> <polygon fill="#FFFFFF" points="37.5,73.788 69.499,55.618 69.499,19.279 37.5,37.449 "/> <polygon fill="#FFFFFF" points="5.502,55.518 37.5,73.688 37.5,37.449 5.502,19.279 "/> <polygon fill="#FFFFFF" points="69.297,19.279 37.5,1.211 5.703,19.279 37.5,37.349 "/> <polygon fill="#FFFFFF" points="37.5,36.238 67.479,19.279 67.379,19.279 "/> <polygon fill="#FFFFFF" points="7.621,19.279 7.521,19.279 37.5,36.238 37.5,36.238 "/> <polygon fill="#FFFFFF" points="37.5,36.238 37.5,36.238 37.5,36.238 "/> <path fill="#444444" d="M69.499,18.068L37.5,0L5.502,18.068l-1.01,0.605v1.212v36.339l31.999,18.169L37.5,75l1.01-0.606 l31.998-18.169V19.886v-1.212L69.499,18.068z M68.489,55.013L38.51,71.971V37.954l29.979-16.958V55.013z M36.491,71.971 L6.511,55.013V20.996l29.98,16.958V71.971z M7.621,19.279L37.5,2.321l29.879,16.958l0,0L37.5,36.238l0,0l0,0L7.621,19.279 L7.621,19.279z"/> <polygon fill="#4090D7" points="37.602,57.031 54.862,47.24 54.862,27.759 37.602,37.55 "/> <polygon fill="#4090D7" points="20.138,47.24 37.399,57.031 37.399,37.55 20.138,27.759 "/> <polygon fill="#4090D7" points="54.66,27.557 37.5,17.766 20.34,27.557 37.5,37.247 "/> <polygon fill="#96BF3D" points="37.5,36.238 52.944,27.557 52.944,27.557 "/> <polygon fill="#96BF3D" points="22.056,27.557 22.056,27.557 37.5,36.238 37.5,36.238 "/> <polygon fill="#96BF3D" points="37.5,36.238 37.5,36.238 37.5,36.238 "/> <path fill="#FFFFFF" d="M54.963,26.346L37.5,16.453l-17.463,9.893l-1.01,0.605v1.211v19.785l17.464,9.892l1.009,0.606l1.01-0.606 l17.463-9.892V28.062v-1.211L54.963,26.346z M53.953,46.735L38.51,55.518V38.055l15.443-8.782V46.735z M36.491,55.518l-15.444-8.782 V29.273l15.444,8.781V55.518z M22.056,27.557L37.5,18.774l15.444,8.682l0,0L37.5,36.238l0,0l0,0L22.056,27.557L22.056,27.557z"/> </svg> </pattern><pattern id="ProcessOnPattern1071" patternUnits="userSpaceOnUse" width="75.0" height="75.0" patternTransform="matrix(1.0,0.0,0.0,1.0,0.0,0.0)"><svg version="1.1" id="Layer_1" xmlns="http://www.w3.org/2000/svg" xmlns:xlink="http://www.w3.org/1999/xlink" x="0px" y="0px" width="75px" height="75px" viewBox="0 0 75 75" enable-background="new 0 0 75 75" xml:space="preserve"> <polygon fill="#FFFFFF" points="37.5,73.788 69.499,55.618 69.499,19.279 37.5,37.449 "/> <polygon fill="#FFFFFF" points="5.502,55.518 37.5,73.688 37.5,37.449 5.502,19.279 "/> <polygon fill="#FFFFFF" points="69.297,19.279 37.5,1.211 5.703,19.279 37.5,37.349 "/> <polygon fill="#FFFFFF" points="37.5,36.238 67.479,19.279 67.379,19.279 "/> <polygon fill="#FFFFFF" points="7.621,19.279 7.521,19.279 37.5,36.238 37.5,36.238 "/> <polygon fill="#FFFFFF" points="37.5,36.238 37.5,36.238 37.5,36.238 "/> <path fill="#444444" d="M69.499,18.068L37.5,0L5.502,18.068l-1.01,0.605v1.212v36.339l31.999,18.169L37.5,75l1.01-0.606 l31.998-18.169V19.886v-1.212L69.499,18.068z M68.489,55.013L38.51,71.971V37.954l29.979-16.958V55.013z M36.491,71.971 L6.511,55.013V20.996l29.98,16.958V71.971z M7.621,19.279L37.5,2.321l29.879,16.958l0,0L37.5,36.238l0,0l0,0L7.621,19.279 L7.621,19.279z"/> <polygon fill="#4090D7" points="37.602,57.031 54.862,47.24 54.862,27.759 37.602,37.55 "/> <polygon fill="#4090D7" points="20.138,47.24 37.399,57.031 37.399,37.55 20.138,27.759 "/> <polygon fill="#4090D7" points="54.66,27.557 37.5,17.766 20.34,27.557 37.5,37.247 "/> <polygon fill="#96BF3D" points="37.5,36.238 52.944,27.557 52.944,27.557 "/> <polygon fill="#96BF3D" points="22.056,27.557 22.056,27.557 37.5,36.238 37.5,36.238 "/> <polygon fill="#96BF3D" points="37.5,36.238 37.5,36.238 37.5,36.238 "/> <path fill="#FFFFFF" d="M54.963,26.346L37.5,16.453l-17.463,9.893l-1.01,0.605v1.211v19.785l17.464,9.892l1.009,0.606l1.01-0.606 l17.463-9.892V28.062v-1.211L54.963,26.346z M53.953,46.735L38.51,55.518V38.055l15.443-8.782V46.735z M36.491,55.518l-15.444-8.782 V29.273l15.444,8.781V55.518z M22.056,27.557L37.5,18.774l15.444,8.682l0,0L37.5,36.238l0,0l0,0L22.056,27.557L22.056,27.557z"/> </svg> </pattern><pattern id="ProcessOnPattern1077" patternUnits="userSpaceOnUse" width="75.0" height="75.0" patternTransform="matrix(1.0,0.0,0.0,1.0,0.0,0.0)"><svg version="1.1" id="Layer_1" xmlns="http://www.w3.org/2000/svg" xmlns:xlink="http://www.w3.org/1999/xlink" x="0px" y="0px" width="75px" height="75px" viewBox="0 0 75 75" enable-background="new 0 0 75 75" xml:space="preserve"> <polygon fill="#FFFFFF" points="37.5,73.788 69.499,55.618 69.499,19.279 37.5,37.449 "/> <polygon fill="#FFFFFF" points="5.502,55.518 37.5,73.688 37.5,37.449 5.502,19.279 "/> <polygon fill="#FFFFFF" points="69.297,19.279 37.5,1.211 5.703,19.279 37.5,37.349 "/> <polygon fill="#FFFFFF" points="37.5,36.238 67.479,19.279 67.379,19.279 "/> <polygon fill="#FFFFFF" points="7.621,19.279 7.521,19.279 37.5,36.238 37.5,36.238 "/> <polygon fill="#FFFFFF" points="37.5,36.238 37.5,36.238 37.5,36.238 "/> <path fill="#444444" d="M69.499,18.068L37.5,0L5.502,18.068l-1.01,0.605v1.212v36.339l31.999,18.169L37.5,75l1.01-0.606 l31.998-18.169V19.886v-1.212L69.499,18.068z M68.489,55.013L38.51,71.971V37.954l29.979-16.958V55.013z M36.491,71.971 L6.511,55.013V20.996l29.98,16.958V71.971z M7.621,19.279L37.5,2.321l29.879,16.958l0,0L37.5,36.238l0,0l0,0L7.621,19.279 L7.621,19.279z"/> <polygon fill="#4090D7" points="37.602,57.031 54.862,47.24 54.862,27.759 37.602,37.55 "/> <polygon fill="#4090D7" points="20.138,47.24 37.399,57.031 37.399,37.55 20.138,27.759 "/> <polygon fill="#4090D7" points="54.66,27.557 37.5,17.766 20.34,27.557 37.5,37.247 "/> <polygon fill="#96BF3D" points="37.5,36.238 52.944,27.557 52.944,27.557 "/> <polygon fill="#96BF3D" points="22.056,27.557 22.056,27.557 37.5,36.238 37.5,36.238 "/> <polygon fill="#96BF3D" points="37.5,36.238 37.5,36.238 37.5,36.238 "/> <path fill="#FFFFFF" d="M54.963,26.346L37.5,16.453l-17.463,9.893l-1.01,0.605v1.211v19.785l17.464,9.892l1.009,0.606l1.01-0.606 l17.463-9.892V28.062v-1.211L54.963,26.346z M53.953,46.735L38.51,55.518V38.055l15.443-8.782V46.735z M36.491,55.518l-15.444-8.782 V29.273l15.444,8.781V55.518z M22.056,27.557L37.5,18.774l15.444,8.682l0,0L37.5,36.238l0,0l0,0L22.056,27.557L22.056,27.557z"/> </svg> </pattern><pattern id="ProcessOnPattern1082" patternUnits="userSpaceOnUse" width="75.0" height="75.0" patternTransform="matrix(1.0,0.0,0.0,1.0,0.0,0.0)"><svg version="1.1" id="Layer_1" xmlns="http://www.w3.org/2000/svg" xmlns:xlink="http://www.w3.org/1999/xlink" x="0px" y="0px" width="75px" height="75px" viewBox="0 0 75 75" enable-background="new 0 0 75 75" xml:space="preserve"> <polygon fill="#FFFFFF" points="37.5,73.788 69.499,55.618 69.499,19.279 37.5,37.449 "/> <polygon fill="#FFFFFF" points="5.502,55.518 37.5,73.688 37.5,37.449 5.502,19.279 "/> <polygon fill="#FFFFFF" points="69.297,19.279 37.5,1.211 5.703,19.279 37.5,37.349 "/> <polygon fill="#FFFFFF" points="37.5,36.238 67.479,19.279 67.379,19.279 "/> <polygon fill="#FFFFFF" points="7.621,19.279 7.521,19.279 37.5,36.238 37.5,36.238 "/> <polygon fill="#FFFFFF" points="37.5,36.238 37.5,36.238 37.5,36.238 "/> <path fill="#444444" d="M69.499,18.068L37.5,0L5.502,18.068l-1.01,0.605v1.212v36.339l31.999,18.169L37.5,75l1.01-0.606 l31.998-18.169V19.886v-1.212L69.499,18.068z M68.489,55.013L38.51,71.971V37.954l29.979-16.958V55.013z M36.491,71.971 L6.511,55.013V20.996l29.98,16.958V71.971z M7.621,19.279L37.5,2.321l29.879,16.958l0,0L37.5,36.238l0,0l0,0L7.621,19.279 L7.621,19.279z"/> <polygon fill="#4090D7" points="37.602,57.031 54.862,47.24 54.862,27.759 37.602,37.55 "/> <polygon fill="#4090D7" points="20.138,47.24 37.399,57.031 37.399,37.55 20.138,27.759 "/> <polygon fill="#4090D7" points="54.66,27.557 37.5,17.766 20.34,27.557 37.5,37.247 "/> <polygon fill="#96BF3D" points="37.5,36.238 52.944,27.557 52.944,27.557 "/> <polygon fill="#96BF3D" points="22.056,27.557 22.056,27.557 37.5,36.238 37.5,36.238 "/> <polygon fill="#96BF3D" points="37.5,36.238 37.5,36.238 37.5,36.238 "/> <path fill="#FFFFFF" d="M54.963,26.346L37.5,16.453l-17.463,9.893l-1.01,0.605v1.211v19.785l17.464,9.892l1.009,0.606l1.01-0.606 l17.463-9.892V28.062v-1.211L54.963,26.346z M53.953,46.735L38.51,55.518V38.055l15.443-8.782V46.735z M36.491,55.518l-15.444-8.782 V29.273l15.444,8.781V55.518z M22.056,27.557L37.5,18.774l15.444,8.682l0,0L37.5,36.238l0,0l0,0L22.056,27.557L22.056,27.557z"/> </svg> </pattern><marker id="ProcessOnMarker1101" markerUnits="userSpaceOnUse" orient="auto" markerWidth="14.289086868996552" markerHeight="19.055054660878554" viewBox="-0.5877852522924731 -0.8090169943749475 14.289086868996552 19.055054660878554" refX="12.0" refY="8.71851033606433"><path id="ProcessOnPath1102" d="M0 0L12.0 8.71851033606433L0 17.43702067212866" stroke="#323232" stroke-width="2.0" fill="none" transform="matrix(1.0,0.0,0.0,1.0,0.0,0.0)"/></marker><marker id="ProcessOnMarker1105" markerUnits="userSpaceOnUse" orient="auto" markerWidth="14.289086868996552" markerHeight="19.055054660878554" viewBox="-0.5877852522924731 -0.8090169943749475 14.289086868996552 19.055054660878554" refX="12.0" refY="8.71851033606433"><path id="ProcessOnPath1106" d="M0 0L12.0 8.71851033606433L0 17.43702067212866" stroke="#323232" stroke-width="2.0" fill="none" transform="matrix(1.0,0.0,0.0,1.0,0.0,0.0)"/></marker><marker id="ProcessOnMarker1109" markerUnits="userSpaceOnUse" orient="auto" markerWidth="14.289086868996552" markerHeight="19.055054660878554" viewBox="-0.5877852522924731 -0.8090169943749475 14.289086868996552 19.055054660878554" refX="12.0" refY="8.71851033606433"><path id="ProcessOnPath1110" d="M0 0L12.0 8.71851033606433L0 17.43702067212866" stroke="#323232" stroke-width="2.0" fill="none" transform="matrix(1.0,0.0,0.0,1.0,0.0,0.0)"/></marker><marker id="ProcessOnMarker1113" markerUnits="userSpaceOnUse" orient="auto" markerWidth="14.289086868996552" markerHeight="19.055054660878554" viewBox="-0.5877852522924731 -0.8090169943749475 14.289086868996552 19.055054660878554" refX="12.0" refY="8.71851033606433"><path id="ProcessOnPath1114" d="M0 0L12.0 8.71851033606433L0 17.43702067212866" stroke="#323232" stroke-width="2.0" fill="none" transform="matrix(1.0,0.0,0.0,1.0,0.0,0.0)"/></marker><marker id="ProcessOnMarker1117" markerUnits="userSpaceOnUse" orient="auto" markerWidth="14.289086868996552" markerHeight="19.055054660878554" viewBox="-0.5877852522924731 -0.8090169943749475 14.289086868996552 19.055054660878554" refX="12.0" refY="8.71851033606433"><path id="ProcessOnPath1118" d="M0 0L12.0 8.71851033606433L0 17.43702067212866" stroke="#323232" stroke-width="2.0" fill="none" transform="matrix(1.0,0.0,0.0,1.0,0.0,0.0)"/></marker><marker id="ProcessOnMarker1121" markerUnits="userSpaceOnUse" orient="auto" markerWidth="14.289086868996552" markerHeight="19.055054660878554" viewBox="-0.5877852522924731 -0.8090169943749475 14.289086868996552 19.055054660878554" refX="12.0" refY="8.71851033606433"><path id="ProcessOnPath1122" d="M0 0L12.0 8.71851033606433L0 17.43702067212866" stroke="#323232" stroke-width="2.0" fill="none" transform="matrix(1.0,0.0,0.0,1.0,0.0,0.0)"/></marker><marker id="ProcessOnMarker1125" markerUnits="userSpaceOnUse" orient="auto" markerWidth="14.289086868996552" markerHeight="19.055054660878554" viewBox="-0.5877852522924731 -0.8090169943749475 14.289086868996552 19.055054660878554" refX="12.0" refY="8.71851033606433"><path id="ProcessOnPath1126" d="M0 0L12.0 8.71851033606433L0 17.43702067212866" stroke="#323232" stroke-width="2.0" fill="none" transform="matrix(1.0,0.0,0.0,1.0,0.0,0.0)"/></marker><marker id="ProcessOnMarker1129" markerUnits="userSpaceOnUse" orient="auto" markerWidth="14.289086868996552" markerHeight="19.055054660878554" viewBox="-0.5877852522924731 -0.8090169943749475 14.289086868996552 19.055054660878554" refX="12.0" refY="8.71851033606433"><path id="ProcessOnPath1130" d="M0 0L12.0 8.71851033606433L0 17.43702067212866" stroke="#323232" stroke-width="2.0" fill="none" transform="matrix(1.0,0.0,0.0,1.0,0.0,0.0)"/></marker><marker id="ProcessOnMarker1133" markerUnits="userSpaceOnUse" orient="auto" markerWidth="14.289086868996552" markerHeight="19.055054660878554" viewBox="-0.5877852522924731 -0.8090169943749475 14.289086868996552 19.055054660878554" refX="12.0" refY="8.71851033606433"><path id="ProcessOnPath1134" d="M0 0L12.0 8.71851033606433L0 17.43702067212866" stroke="#323232" stroke-width="2.0" fill="none" transform="matrix(1.0,0.0,0.0,1.0,0.0,0.0)"/></marker><marker id="ProcessOnMarker1137" markerUnits="userSpaceOnUse" orient="auto" markerWidth="14.289086868996552" markerHeight="19.055054660878554" viewBox="-0.5877852522924731 -0.8090169943749475 14.289086868996552 19.055054660878554" refX="12.0" refY="8.71851033606433"><path id="ProcessOnPath1138" d="M0 0L12.0 8.71851033606433L0 17.43702067212866" stroke="#323232" stroke-width="2.0" fill="none" transform="matrix(1.0,0.0,0.0,1.0,0.0,0.0)"/></marker><marker id="ProcessOnMarker1141" markerUnits="userSpaceOnUse" orient="auto" markerWidth="14.289086868996552" markerHeight="19.055054660878554" viewBox="-0.5877852522924731 -0.8090169943749475 14.289086868996552 19.055054660878554" refX="12.0" refY="8.71851033606433"><path id="ProcessOnPath1142" d="M0 0L12.0 8.71851033606433L0 17.43702067212866" stroke="#323232" stroke-width="2.0" fill="none" transform="matrix(1.0,0.0,0.0,1.0,0.0,0.0)"/></marker><marker id="ProcessOnMarker1145" markerUnits="userSpaceOnUse" orient="auto" markerWidth="14.289086868996552" markerHeight="19.055054660878554" viewBox="-0.5877852522924731 -0.8090169943749475 14.289086868996552 19.055054660878554" refX="12.0" refY="8.71851033606433"><path id="ProcessOnPath1146" d="M0 0L12.0 8.71851033606433L0 17.43702067212866" stroke="#323232" stroke-width="2.0" fill="none" transform="matrix(1.0,0.0,0.0,1.0,0.0,0.0)"/></marker><marker id="ProcessOnMarker1149" markerUnits="userSpaceOnUse" orient="auto" markerWidth="14.289086868996552" markerHeight="19.055054660878554" viewBox="-0.5877852522924731 -0.8090169943749475 14.289086868996552 19.055054660878554" refX="12.0" refY="8.71851033606433"><path id="ProcessOnPath1150" d="M0 0L12.0 8.71851033606433L0 17.43702067212866" stroke="#323232" stroke-width="2.0" fill="none" transform="matrix(1.0,0.0,0.0,1.0,0.0,0.0)"/></marker><marker id="ProcessOnMarker1153" markerUnits="userSpaceOnUse" orient="auto" markerWidth="14.289086868996552" markerHeight="19.055054660878554" viewBox="-0.5877852522924731 -0.8090169943749475 14.289086868996552 19.055054660878554" refX="12.0" refY="8.71851033606433"><path id="ProcessOnPath1154" d="M0 0L12.0 8.71851033606433L0 17.43702067212866" stroke="#323232" stroke-width="2.0" fill="none" transform="matrix(1.0,0.0,0.0,1.0,0.0,0.0)"/></marker><marker id="ProcessOnMarker1157" markerUnits="userSpaceOnUse" orient="auto" markerWidth="14.289086868996552" markerHeight="19.055054660878554" viewBox="-0.5877852522924731 -0.8090169943749475 14.289086868996552 19.055054660878554" refX="12.0" refY="8.71851033606433"><path id="ProcessOnPath1158" d="M0 0L12.0 8.71851033606433L0 17.43702067212866" stroke="#323232" stroke-width="2.0" fill="none" transform="matrix(1.0,0.0,0.0,1.0,0.0,0.0)"/></marker><marker id="ProcessOnMarker1161" markerUnits="userSpaceOnUse" orient="auto" markerWidth="14.289086868996552" markerHeight="19.055054660878554" viewBox="-0.5877852522924731 -0.8090169943749475 14.289086868996552 19.055054660878554" refX="12.0" refY="8.71851033606433"><path id="ProcessOnPath1162" d="M0 0L12.0 8.71851033606433L0 17.43702067212866" stroke="#323232" stroke-width="2.0" fill="none" transform="matrix(1.0,0.0,0.0,1.0,0.0,0.0)"/></marker><marker id="ProcessOnMarker1165" markerUnits="userSpaceOnUse" orient="auto" markerWidth="14.289086868996552" markerHeight="19.055054660878554" viewBox="-0.5877852522924731 -0.8090169943749475 14.289086868996552 19.055054660878554" refX="12.0" refY="8.71851033606433"><path id="ProcessOnPath1166" d="M0 0L12.0 8.71851033606433L0 17.43702067212866" stroke="#323232" stroke-width="2.0" fill="none" transform="matrix(1.0,0.0,0.0,1.0,0.0,0.0)"/></marker></defs><g id="ProcessOnG1002"><path id="ProcessOnPath1003" d="M228.57142857142833 158.33333206176758H1436.204081632653V1343.9841269841281H228.57142857142844V158.33333206176758Z" fill="none"/><g id="ProcessOnG1004"><g id="ProcessOnG1005" transform="matrix(1.0,0.0,0.0,1.0,453.07142857142856,912.9285714285725)" opacity="1.0"><path id="ProcessOnPath1006" d="M63.419999999999995 287.7388888888889C-52.85 205.52777777777777 21.14 143.86944444444444 47.565 123.31666666666666C36.995000000000005 20.552777777777777 169.12 0.0 221.97 41.105555555555554C264.25 -20.552777777777777 396.375 0.0 396.375 61.65833333333333C502.075 41.105555555555554 544.355 123.31666666666666 502.075 226.08055555555558C539.07 308.29166666666663 502.075 411.05555555555554 380.52 369.95C354.095 423.3872222222222 248.39499999999998 423.3872222222222 221.97 369.95C169.12 411.05555555555554 63.419999999999995 390.50277777777774 63.419999999999995 287.7388888888889Z" stroke="#4d9900" stroke-width="2.0" stroke-dasharray="none" opacity="1.0" fill="#ffffff"/></g><g id="ProcessOnG1007" transform="matrix(1.0,0.0,0.0,1.0,975.2040816326529,702.5714285714295)" opacity="1.0"><path id="ProcessOnPath1008" d="M52.919999999999995 188.29999999999998C-44.1 134.5 17.64 94.14999999999999 39.69 80.7C30.870000000000005 13.450000000000001 141.12 0.0 185.22 26.900000000000002C220.5 -13.450000000000001 330.75 0.0 330.75 40.35C418.95 26.900000000000002 454.23 80.7 418.95 147.95000000000002C449.82 201.75 418.95 269.0 317.52 242.1C295.47 277.07 207.26999999999998 277.07 185.22 242.1C141.12 269.0 52.919999999999995 255.54999999999998 52.919999999999995 188.29999999999998Z" stroke="#ff66ff" stroke-width="2.0" stroke-dasharray="none" opacity="1.0" fill="#ffffff"/></g><g id="ProcessOnG1009" transform="matrix(1.0,0.0,0.0,1.0,272.33331298828125,178.33333206176758)" opacity="1.0"><path id="ProcessOnPath1010" d="M87.2514310128348 503.6666675567626C-72.70952584402902 359.7619053976876 29.083810337611602 251.8333337783813 65.43857325962611 215.85714323861257C50.89666809082031 35.97619053976876 232.67048270089282 0.0 305.38000854492185 71.95238107953752C363.54762922014504 -35.97619053976876 545.3214438302175 0.0 545.3214438302175 107.92857161930628C690.7404955182756 71.95238107953752 748.9081161934988 215.85714323861257 690.7404955182756 395.73809593745636C741.6371636090959 539.6428580965314 690.7404955182756 719.5238107953752 523.5085860770089 647.5714297158377C487.15382315499437 741.1095251192364 341.7347714669363 741.1095251192364 305.38000854492185 647.5714297158377C232.67048270089282 719.5238107953752 87.2514310128348 683.5476202556064 87.2514310128348 503.6666675567626Z" stroke="#99ccff" stroke-width="2.0" stroke-dasharray="none" opacity="1.0" fill="#ffffff"/></g><g id="ProcessOnG1011" transform="matrix(1.0,0.0,0.0,1.0,572.6428571428572,574.0714285714288)" opacity="1.0"><path id="ProcessOnPath1012" d="M0.0 0.0L75.0 0.0L75.0 75.0L0.0 75.0Z" stroke="#323232" stroke-width="0.0" stroke-dasharray="none" opacity="1.0" fill="url(#ProcessOnPattern1013)"/><g id="ProcessOnG1014" transform="matrix(1.0,0.0,0.0,1.0,-20.0,73.75)"><text id="ProcessOnText1015" fill="#000000" font-weight="normal" font-style="normal" text-decoration="blink" font-family="微软雅黑" text-anchor="middle" font-size="13" x="57.5" y="13.325">SharedComponen</text><text id="ProcessOnText1016" fill="#000000" font-weight="normal" font-style="normal" text-decoration="blink" font-family="微软雅黑" text-anchor="middle" font-size="13" x="57.5" y="29.575">t.js</text></g></g><g id="ProcessOnG1017" transform="matrix(1.0,0.0,0.0,1.0,735.0714285714284,428.95918367346934)" opacity="1.0"><path id="ProcessOnPath1018" d="M0.0 0.0L75.0 0.0L75.0 75.0L0.0 75.0Z" stroke="#323232" stroke-width="0.0" stroke-dasharray="none" opacity="1.0" fill="url(#ProcessOnPattern1019)"/><g id="ProcessOnG1020" transform="matrix(1.0,0.0,0.0,1.0,-20.0,73.75)"><text id="ProcessOnText1021" fill="#000000" font-weight="normal" font-style="normal" text-decoration="blink" font-family="微软雅黑" text-anchor="middle" font-size="13" x="57.5" y="13.325">HomeFeature2.scs</text><text id="ProcessOnText1022" fill="#000000" font-weight="normal" font-style="normal" text-decoration="blink" font-family="微软雅黑" text-anchor="middle" font-size="13" x="57.5" y="29.575">s</text></g></g><g id="ProcessOnG1023" transform="matrix(1.0,0.0,0.0,1.0,1218.7040816326546,828.0714285714291)" opacity="1.0"><path id="ProcessOnPath1024" d="M0.0 0.0L75.0 0.0L75.0 75.0L0.0 75.0Z" stroke="#323232" stroke-width="0.0" stroke-dasharray="none" opacity="1.0" fill="url(#ProcessOnPattern1025)"/><g id="ProcessOnG1026" transform="matrix(1.0,0.0,0.0,1.0,-20.0,81.875)"><text id="ProcessOnText1027" fill="#000000" font-weight="normal" font-style="normal" text-decoration="blink" font-family="微软雅黑" text-anchor="middle" font-size="13" x="57.5" y="13.325">hint.css</text></g></g><g id="ProcessOnG1028" transform="matrix(1.0,0.0,0.0,1.0,572.6428571428572,429.0714285714287)" opacity="1.0"><path id="ProcessOnPath1029" d="M0.0 0.0L75.0 0.0L75.0 75.0L0.0 75.0Z" stroke="#323232" stroke-width="0.0" stroke-dasharray="none" opacity="1.0" fill="url(#ProcessOnPattern1030)"/><g id="ProcessOnG1031" transform="matrix(1.0,0.0,0.0,1.0,-20.0,81.875)"><text id="ProcessOnText1032" fill="#000000" font-weight="normal" font-style="normal" text-decoration="blink" font-family="微软雅黑" text-anchor="middle" font-size="13" x="57.5" y="13.325">HomeFeature2.js</text></g></g><g id="ProcessOnG1033" transform="matrix(1.0,0.0,0.0,1.0,572.6428571428572,290.07142857142884)" opacity="1.0"><path id="ProcessOnPath1034" d="M0.0 0.0L75.0 0.0L75.0 75.0L0.0 75.0Z" stroke="#323232" stroke-width="0.0" stroke-dasharray="none" opacity="1.0" fill="url(#ProcessOnPattern1035)"/><g id="ProcessOnG1036" transform="matrix(1.0,0.0,0.0,1.0,-20.0,81.875)"><text id="ProcessOnText1037" fill="#000000" font-weight="normal" font-style="normal" text-decoration="blink" font-family="微软雅黑" text-anchor="middle" font-size="13" x="57.5" y="13.325">HomeFeature1.js</text></g></g><g id="ProcessOnG1038" transform="matrix(1.0,0.0,0.0,1.0,569.6428571428572,721.0714285714295)" opacity="1.0"><path id="ProcessOnPath1039" d="M0.0 0.0L75.0 0.0L75.0 75.0L0.0 75.0Z" stroke="#323232" stroke-width="0.0" stroke-dasharray="0.0 0.0" opacity="1.0" fill="url(#ProcessOnPattern1040)"/><g id="ProcessOnG1041" transform="matrix(1.0,0.0,0.0,1.0,-20.0,81.875)"><text id="ProcessOnText1042" fill="#000000" font-weight="normal" font-style="normal" text-decoration="blink" font-family="微软雅黑" text-anchor="middle" font-size="13" x="57.5" y="13.325">UniqueFeature.js</text></g></g><g id="ProcessOnG1043" transform="matrix(1.0,0.0,0.0,1.0,616.0714285714286,1012.9285714285725)" opacity="1.0"><path id="ProcessOnPath1044" d="M0.0 0.0L75.0 0.0L75.0 75.0L0.0 75.0Z" stroke="#323232" stroke-width="0.0" stroke-dasharray="none" opacity="1.0" fill="url(#ProcessOnPattern1045)"/><g id="ProcessOnG1046" transform="matrix(1.0,0.0,0.0,1.0,-20.0,81.875)"><text id="ProcessOnText1047" fill="#000000" font-weight="normal" font-style="normal" text-decoration="blink" font-family="微软雅黑" text-anchor="middle" font-size="13" x="57.5" y="13.325">catalog.js</text></g></g><g id="ProcessOnG1048" transform="matrix(1.0,0.0,0.0,1.0,610.0714285714286,1135.9285714285681)" opacity="1.0"><path id="ProcessOnPath1049" d="M0.0 0.0L75.0 0.0L75.0 75.0L0.0 75.0Z" stroke="#323232" stroke-width="0.0" stroke-dasharray="none" opacity="1.0" fill="url(#ProcessOnPattern1050)"/><g id="ProcessOnG1051" transform="matrix(1.0,0.0,0.0,1.0,-20.0,81.875)"><text id="ProcessOnText1052" fill="#000000" font-weight="normal" font-style="normal" text-decoration="blink" font-family="微软雅黑" text-anchor="middle" font-size="13" x="57.5" y="13.325">home.js</text></g></g><g id="ProcessOnG1053" transform="matrix(1.0,0.0,0.0,1.0,735.0714285714284,720.9591836734701)" opacity="1.0"><path id="ProcessOnPath1054" d="M0.0 0.0L75.0 0.0L75.0 75.0L0.0 75.0Z" stroke="#323232" stroke-width="0.0" stroke-dasharray="none" opacity="1.0" fill="url(#ProcessOnPattern1055)"/><g id="ProcessOnG1056" transform="matrix(1.0,0.0,0.0,1.0,-20.0,81.875)"><text id="ProcessOnText1057" fill="#000000" font-weight="normal" font-style="normal" text-decoration="blink" font-family="微软雅黑" text-anchor="middle" font-size="13" x="57.5" y="13.325">logging.js</text></g></g><g id="ProcessOnG1058" transform="matrix(1.0,0.0,0.0,1.0,1102.7040816326544,828.0714285714291)" opacity="1.0"><path id="ProcessOnPath1059" d="M0.0 0.0L75.0 0.0L75.0 75.0L0.0 75.0Z" stroke="#323232" stroke-width="0.0" stroke-dasharray="none" opacity="1.0" fill="url(#ProcessOnPattern1060)"/><g id="ProcessOnG1061" transform="matrix(1.0,0.0,0.0,1.0,-20.0,81.875)"><text id="ProcessOnText1062" fill="#000000" font-weight="normal" font-style="normal" text-decoration="blink" font-family="微软雅黑" text-anchor="middle" font-size="13" x="57.5" y="13.325">underscore.js</text></g></g><g id="ProcessOnG1063" transform="matrix(1.0,0.0,0.0,1.0,735.0714285714284,289.95918367346945)" opacity="1.0"><path id="ProcessOnPath1064" d="M0.0 0.0L75.0 0.0L75.0 75.0L0.0 75.0Z" stroke="#323232" stroke-width="0.0" stroke-dasharray="none" opacity="1.0" fill="url(#ProcessOnPattern1065)"/><g id="ProcessOnG1066" transform="matrix(1.0,0.0,0.0,1.0,-20.0,73.75)"><text id="ProcessOnText1067" fill="#000000" font-weight="normal" font-style="normal" text-decoration="blink" font-family="微软雅黑" text-anchor="middle" font-size="13" x="57.5" y="13.325">HomeFeature1.scs</text><text id="ProcessOnText1068" fill="#000000" font-weight="normal" font-style="normal" text-decoration="blink" font-family="微软雅黑" text-anchor="middle" font-size="13" x="57.5" y="29.575">s</text></g></g><g id="ProcessOnG1069" transform="matrix(1.0,0.0,0.0,1.0,735.0714285714284,573.6443148688047)" opacity="1.0"><path id="ProcessOnPath1070" d="M0.0 0.0L75.0 0.0L75.0 75.0L0.0 75.0Z" stroke="#323232" stroke-width="0.0" stroke-dasharray="none" opacity="1.0" fill="url(#ProcessOnPattern1071)"/><g id="ProcessOnG1072" transform="matrix(1.0,0.0,0.0,1.0,-20.0,73.75)"><text id="ProcessOnText1073" fill="#000000" font-weight="normal" font-style="normal" text-decoration="blink" font-family="微软雅黑" text-anchor="middle" font-size="13" x="57.5" y="13.325">SharedComponen</text><text id="ProcessOnText1074" fill="#000000" font-weight="normal" font-style="normal" text-decoration="blink" font-family="微软雅黑" text-anchor="middle" font-size="13" x="57.5" y="29.575">t.scss</text></g></g><g id="ProcessOnG1075" transform="matrix(1.0,0.0,0.0,1.0,735.0714285714284,1135.9285714285681)" opacity="1.0"><path id="ProcessOnPath1076" d="M0.0 0.0L75.0 0.0L75.0 75.0L0.0 75.0Z" stroke="#323232" stroke-width="0.0" stroke-dasharray="none" opacity="1.0" fill="url(#ProcessOnPattern1077)"/><g id="ProcessOnG1078" transform="matrix(1.0,0.0,0.0,1.0,-20.0,81.875)"><text id="ProcessOnText1079" fill="#000000" font-weight="normal" font-style="normal" text-decoration="blink" font-family="微软雅黑" text-anchor="middle" font-size="13" x="57.5" y="13.325">home.scss</text></g></g><g id="ProcessOnG1080" transform="matrix(1.0,0.0,0.0,1.0,735.0714285714284,1012.9285714285725)" opacity="1.0"><path id="ProcessOnPath1081" d="M0.0 0.0L75.0 0.0L75.0 75.0L0.0 75.0Z" stroke="#323232" stroke-width="0.0" stroke-dasharray="none" opacity="1.0" fill="url(#ProcessOnPattern1082)"/><g id="ProcessOnG1083" transform="matrix(1.0,0.0,0.0,1.0,-20.0,81.875)"><text id="ProcessOnText1084" fill="#000000" font-weight="normal" font-style="normal" text-decoration="blink" font-family="微软雅黑" text-anchor="middle" font-size="13" x="57.5" y="13.325">catalog.scss</text></g></g><g id="ProcessOnG1085" transform="matrix(1.0,0.0,0.0,1.0,248.57142857142833,490.53061224489693)" opacity="1.0"><path id="ProcessOnPath1086" d="M0.0 0.0L160.0 0.0L160.0 40.0L0.0 40.0Z" stroke="#323232" stroke-width="0.0" stroke-dasharray="none" opacity="1.0" fill="none"/><g id="ProcessOnG1087" transform="matrix(1.0,0.0,0.0,1.0,0.0,-10.0)"><text id="ProcessOnText1088" fill="#000000" font-weight="normal" font-style="normal" text-decoration="blink" font-family="Comic Sans MS" text-anchor="middle" font-size="24" x="80.0" y="24.6">Common librar</text><text id="ProcessOnText1089" fill="#000000" font-weight="normal" font-style="normal" text-decoration="blink" font-family="Comic Sans MS" text-anchor="middle" font-size="24" x="80.0" y="54.6">ies</text></g></g><g id="ProcessOnG1090" transform="matrix(1.0,0.0,0.0,1.0,1111.7040816326544,755.9591836734701)" opacity="1.0"><path id="ProcessOnPath1091" d="M0.0 0.0L160.0 0.0L160.0 40.0L0.0 40.0Z" stroke="#323232" stroke-width="0.0" stroke-dasharray="none" opacity="1.0" fill="none"/><g id="ProcessOnG1092" transform="matrix(1.0,0.0,0.0,1.0,0.0,-10.0)"><text id="ProcessOnText1093" fill="#000000" font-weight="normal" font-style="normal" text-decoration="blink" font-family="Comic Sans MS" text-anchor="middle" font-size="24" x="80.0" y="24.6">third-party lib</text><text id="ProcessOnText1094" fill="#000000" font-weight="normal" font-style="normal" text-decoration="blink" font-family="Comic Sans MS" text-anchor="middle" font-size="24" x="80.0" y="54.6">raries</text></g></g><g id="ProcessOnG1095" transform="matrix(1.0,0.0,0.0,1.0,628.5714285714283,1248.119533527694)" opacity="1.0"><path id="ProcessOnPath1096" d="M0.0 0.0L160.0 0.0L160.0 40.0L0.0 40.0Z" stroke="#323232" stroke-width="0.0" stroke-dasharray="none" opacity="1.0" fill="none"/><g id="ProcessOnG1097" transform="matrix(1.0,0.0,0.0,1.0,0.0,5.0)"><text id="ProcessOnText1098" fill="#000000" font-weight="normal" font-style="normal" text-decoration="blink" font-family="Comic Sans MS" text-anchor="middle" font-size="24" x="80.0" y="24.6">pages</text></g></g><g id="ProcessOnG1099"><path id="ProcessOnPath1100" d="M647.6428571428571 327.57142857142895L691.3571428571428 327.57142857142895L691.3571428571428 327.45918367346957L735.0714285714284 327.45918367346957" stroke="#323232" stroke-width="2.0" stroke-dasharray="10.0 4.0" fill="none" marker-end="url(#ProcessOnMarker1101)"/></g><g id="ProcessOnG1103"><path id="ProcessOnPath1104" d="M647.6428571428571 466.5714285714287L691.3571428571428 466.5714285714287L691.3571428571428 466.45918367346934L735.0714285714284 466.45918367346934" stroke="#323232" stroke-width="2.0" stroke-dasharray="10.0 4.0" fill="none" marker-end="url(#ProcessOnMarker1105)"/></g><g id="ProcessOnG1107"><path id="ProcessOnPath1108" d="M647.6428571428571 611.5714285714292L691.3571428571428 611.5714285714292L691.3571428571428 611.1443148688052L735.0714285714284 611.1443148688052" stroke="#323232" stroke-width="2.0" stroke-dasharray="10.0 4.0" fill="none" marker-end="url(#ProcessOnMarker1109)"/></g><g id="ProcessOnG1111"><path id="ProcessOnPath1112" d="M610.1428571428572 290.07142857142884L610.1428571428572 260.07142857142884L840.0714285714284 260.07142857142884L840.0714285714284 758.4591836734701L810.0714285714284 758.4591836734701" stroke="#323232" stroke-width="2.0" stroke-dasharray="10.0 4.0" fill="none" marker-end="url(#ProcessOnMarker1113)"/></g><g id="ProcessOnG1115"><path id="ProcessOnPath1116" d="M644.6428571428571 758.5714285714295L689.8571428571428 758.5714285714295L689.8571428571428 758.4591836734701L735.0714285714284 758.4591836734701" stroke="#323232" stroke-width="2.0" stroke-dasharray="10.0 4.0" fill="none" marker-end="url(#ProcessOnMarker1117)"/></g><g id="ProcessOnG1119"><path id="ProcessOnPath1120" d="M607.1428571428572 796.0714285714295L607.1428571428572 865.5714285714291L1102.7040816326544 865.5714285714291" stroke="#323232" stroke-width="2.0" stroke-dasharray="10.0 4.0" fill="none" marker-end="url(#ProcessOnMarker1121)"/></g><g id="ProcessOnG1123"><path id="ProcessOnPath1124" d="M653.5714285714284 1012.9285714285725L653.5714285714284 982.9285714285725L539.6428571428572 982.9285714285725L539.6428571428572 758.5714285714295L569.6428571428572 758.5714285714295" stroke="#323232" stroke-width="2.0" stroke-dasharray="10.0 4.0" fill="none" marker-end="url(#ProcessOnMarker1125)"/></g><g id="ProcessOnG1127"><path id="ProcessOnPath1128" d="M653.5714285714284 1012.9285714285725L653.5714285714284 982.9285714285725L501.6428571428571 982.9285714285725L501.6428571428571 611.5714285714292L572.6428571428572 611.5714285714292" stroke="#323232" stroke-width="2.0" stroke-dasharray="10.0 4.0" fill="none" marker-end="url(#ProcessOnMarker1129)"/></g><g id="ProcessOnG1131"><path id="ProcessOnPath1132" d="M691.0714285714284 1050.4285714285706L713.0714285714283 1050.4285714285706L713.0714285714283 1050.4285714285706L735.0714285714284 1050.4285714285706" stroke="#323232" stroke-width="2.0" stroke-dasharray="10.0 4.0" fill="none" marker-end="url(#ProcessOnMarker1133)"/></g><g id="ProcessOnG1135"><path id="ProcessOnPath1136" d="M653.5714285714284 1012.9285714285725L653.5714285714284 904.4438775510213L772.5714285714283 904.4438775510213L772.5714285714283 795.9591836734701" stroke="#323232" stroke-width="2.0" stroke-dasharray="10.0 4.0" fill="none" marker-end="url(#ProcessOnMarker1137)"/></g><g id="ProcessOnG1139"><path id="ProcessOnPath1140" d="M685.0714285714284 1173.4285714285681L710.0714285714284 1173.4285714285681L710.0714285714284 1173.4285714285681L735.0714285714284 1173.4285714285681" stroke="#323232" stroke-width="2.0" stroke-dasharray="10.0 4.0" fill="none" marker-end="url(#ProcessOnMarker1141)"/></g><g id="ProcessOnG1143"><path id="ProcessOnPath1144" d="M610.0714285714286 1173.4285714285681L421.6428571428571 1173.4285714285681L421.6428571428571 466.5714285714287L572.6428571428572 466.5714285714287" stroke="#323232" stroke-width="2.0" stroke-dasharray="10.0 4.0" fill="none" marker-end="url(#ProcessOnMarker1145)"/></g><g id="ProcessOnG1147"><path id="ProcessOnPath1148" d="M610.0714285714286 1173.4285714285681L449.6428571428571 1173.4285714285681L449.6428571428571 327.57142857142895L572.6428571428572 327.57142857142895" stroke="#323232" stroke-width="2.0" stroke-dasharray="10.0 4.0" fill="none" marker-end="url(#ProcessOnMarker1149)"/></g><g id="ProcessOnG1151"><path id="ProcessOnPath1152" d="M610.0714285714286 1173.4285714285681L397.6428571428571 1173.4285714285681L397.6428571428571 611.5714285714292L572.6428571428572 611.5714285714292" stroke="#323232" stroke-width="2.0" stroke-dasharray="10.0 4.0" fill="none" marker-end="url(#ProcessOnMarker1153)"/></g><g id="ProcessOnG1155"><path id="ProcessOnPath1156" d="M610.0714285714286 1173.4285714285681L580.0714285714286 1173.4285714285681L580.0714285714286 690.9591836734701L772.5714285714283 690.9591836734701L772.5714285714283 720.9591836734701" stroke="#323232" stroke-width="2.0" stroke-dasharray="10.0 4.0" fill="none" marker-end="url(#ProcessOnMarker1157)"/></g><g id="ProcessOnG1159"><path id="ProcessOnPath1160" d="M810.0714285714284 1173.4285714285681L1256.2040816326544 1173.4285714285681L1256.2040816326544 903.0714285714292" stroke="#323232" stroke-width="2.0" stroke-dasharray="10.0 4.0" fill="none" marker-end="url(#ProcessOnMarker1161)"/></g><g id="ProcessOnG1163"><path id="ProcessOnPath1164" d="M810.0714285714284 1050.4285714285706L1323.7040816326544 1050.4285714285706L1323.7040816326544 865.5714285714291L1293.7040816326544 865.5714285714291" stroke="#323232" stroke-width="2.0" stroke-dasharray="10.0 4.0" fill="none" marker-end="url(#ProcessOnMarker1165)"/></g></g></g></svg>