<svg xmlns="http://www.w3.org/2000/svg" xmlns:xlink="http://www.w3.org/1999/xlink" id="processonSvg1000" viewBox="186.5178571428568 53.69047619047619 1770.089285714287 1345.1011904761888" width="1770.089285714287" height="1345.1011904761888"><defs id="ProcessOnDefs1001"><pattern id="ProcessOnPattern1007" patternUnits="userSpaceOnUse" width="369.01785714285734" height="254.4084821428579" patternTransform="matrix(1.5375744047619055,0.0,0.0,1.060035342261908,0.0,0.0)"><svg version="1.1" id="svg2" xmlns:svg="http://www.w3.org/2000/svg" xmlns:dc="http://purl.org/dc/elements/1.1/" xmlns:cc="http://creativecommons.org/ns#" xmlns:rdf="http://www.w3.org/1999/02/22-rdf-syntax-ns#" xmlns="http://www.w3.org/2000/svg" xmlns:xlink="http://www.w3.org/1999/xlink" x="0px" y="0px" width="240px" height="240px" viewBox="0 0 240 240" enable-background="new 0 0 240 240" xml:space="preserve"> <path fill="none" stroke="#000000" stroke-width="2" stroke-miterlimit="10" stroke-dasharray="8,8" d="M240,215.59 c0,13.48-10.93,24.41-24.41,24.41H26.41C12.929,240,2,229.07,2,215.59V26.41C2,12.928,12.929,2,26.41,2h189.18 C229.07,2,240,12.928,240,26.41V215.59z"/> </svg> </pattern><pattern id="ProcessOnPattern1010" patternUnits="userSpaceOnUse" width="384.44508219954673" height="260.7145915764172" patternTransform="matrix(1.601854509164778,0.0,0.0,1.0863107982350717,0.0,0.0)"><svg version="1.1" id="svg2" xmlns:svg="http://www.w3.org/2000/svg" xmlns:dc="http://purl.org/dc/elements/1.1/" xmlns:cc="http://creativecommons.org/ns#" xmlns:rdf="http://www.w3.org/1999/02/22-rdf-syntax-ns#" xmlns="http://www.w3.org/2000/svg" xmlns:xlink="http://www.w3.org/1999/xlink" x="0px" y="0px" width="240px" height="240px" viewBox="0 0 240 240" enable-background="new 0 0 240 240" xml:space="preserve"> <path fill="none" stroke="#000000" stroke-width="2" stroke-miterlimit="10" stroke-dasharray="8,8" d="M240,215.59 c0,13.48-10.93,24.41-24.41,24.41H26.41C12.929,240,2,229.07,2,215.59V26.41C2,12.928,12.929,2,26.41,2h189.18 C229.07,2,240,12.928,240,26.41V215.59z"/> </svg> </pattern><pattern id="ProcessOnPattern1013" patternUnits="userSpaceOnUse" width="593.75" height="330.0" patternTransform="matrix(2.4739583333333335,0.0,0.0,1.375,0.0,0.0)"><svg version="1.1" id="svg2" xmlns:svg="http://www.w3.org/2000/svg" xmlns:dc="http://purl.org/dc/elements/1.1/" xmlns:cc="http://creativecommons.org/ns#" xmlns:rdf="http://www.w3.org/1999/02/22-rdf-syntax-ns#" xmlns="http://www.w3.org/2000/svg" xmlns:xlink="http://www.w3.org/1999/xlink" x="0px" y="0px" width="240px" height="240px" viewBox="0 0 240 240" enable-background="new 0 0 240 240" xml:space="preserve"> <path fill="none" stroke="#000000" stroke-width="2" stroke-miterlimit="10" stroke-dasharray="8,8" d="M240,215.59 c0,13.48-10.93,24.41-24.41,24.41H26.41C12.929,240,2,229.07,2,215.59V26.41C2,12.928,12.929,2,26.41,2h189.18 C229.07,2,240,12.928,240,26.41V215.59z"/> </svg> </pattern><pattern id="ProcessOnPattern1016" patternUnits="userSpaceOnUse" width="375.76785714285506" height="336.25" patternTransform="matrix(1.5656994047618962,0.0,0.0,1.4010416666666667,0.0,0.0)"><svg version="1.1" id="svg2" xmlns:svg="http://www.w3.org/2000/svg" xmlns:dc="http://purl.org/dc/elements/1.1/" xmlns:cc="http://creativecommons.org/ns#" xmlns:rdf="http://www.w3.org/1999/02/22-rdf-syntax-ns#" xmlns="http://www.w3.org/2000/svg" xmlns:xlink="http://www.w3.org/1999/xlink" x="0px" y="0px" width="240px" height="240px" viewBox="0 0 240 240" enable-background="new 0 0 240 240" xml:space="preserve"> <path fill="none" stroke="#000000" stroke-width="2" stroke-miterlimit="10" stroke-dasharray="8,8" d="M240,215.59 c0,13.48-10.93,24.41-24.41,24.41H26.41C12.929,240,2,229.07,2,215.59V26.41C2,12.928,12.929,2,26.41,2h189.18 C229.07,2,240,12.928,240,26.41V215.59z"/> </svg> </pattern><pattern id="ProcessOnPattern1019" patternUnits="userSpaceOnUse" width="328.26618303571377" height="252.6565596583032" patternTransform="matrix(1.3677757626488074,0.0,0.0,1.05273566524293,0.0,0.0)"><svg version="1.1" id="svg2" xmlns:svg="http://www.w3.org/2000/svg" xmlns:dc="http://purl.org/dc/elements/1.1/" xmlns:cc="http://creativecommons.org/ns#" xmlns:rdf="http://www.w3.org/1999/02/22-rdf-syntax-ns#" xmlns="http://www.w3.org/2000/svg" xmlns:xlink="http://www.w3.org/1999/xlink" x="0px" y="0px" width="240px" height="240px" viewBox="0 0 240 240" enable-background="new 0 0 240 240" xml:space="preserve"> <path fill="none" stroke="#000000" stroke-width="2" stroke-miterlimit="10" stroke-dasharray="8,8" d="M240,215.59 c0,13.48-10.93,24.41-24.41,24.41H26.41C12.929,240,2,229.07,2,215.59V26.41C2,12.928,12.929,2,26.41,2h189.18 C229.07,2,240,12.928,240,26.41V215.59z"/> </svg> </pattern><pattern id="ProcessOnPattern1022" patternUnits="userSpaceOnUse" width="390.0" height="387.3571428571423" patternTransform="matrix(1.625,0.0,0.0,1.613988095238093,0.0,0.0)"><svg version="1.1" id="svg2" xmlns:svg="http://www.w3.org/2000/svg" xmlns:dc="http://purl.org/dc/elements/1.1/" xmlns:cc="http://creativecommons.org/ns#" xmlns:rdf="http://www.w3.org/1999/02/22-rdf-syntax-ns#" xmlns="http://www.w3.org/2000/svg" xmlns:xlink="http://www.w3.org/1999/xlink" x="0px" y="0px" width="240px" height="240px" viewBox="0 0 240 240" enable-background="new 0 0 240 240" xml:space="preserve"> <path fill="none" stroke="#000000" stroke-width="2" stroke-miterlimit="10" stroke-dasharray="8,8" d="M240,215.59 c0,13.48-10.93,24.41-24.41,24.41H26.41C12.929,240,2,229.07,2,215.59V26.41C2,12.928,12.929,2,26.41,2h189.18 C229.07,2,240,12.928,240,26.41V215.59z"/> </svg> </pattern><pattern id="ProcessOnPattern1025" patternUnits="userSpaceOnUse" width="341.24999999999955" height="268.07142857142844" patternTransform="matrix(1.421874999999998,0.0,0.0,1.1169642857142852,0.0,0.0)"><svg version="1.1" id="svg2" xmlns:svg="http://www.w3.org/2000/svg" xmlns:dc="http://purl.org/dc/elements/1.1/" xmlns:cc="http://creativecommons.org/ns#" xmlns:rdf="http://www.w3.org/1999/02/22-rdf-syntax-ns#" xmlns="http://www.w3.org/2000/svg" xmlns:xlink="http://www.w3.org/1999/xlink" x="0px" y="0px" width="240px" height="240px" viewBox="0 0 240 240" enable-background="new 0 0 240 240" xml:space="preserve"> <path fill="none" stroke="#000000" stroke-width="2" stroke-miterlimit="10" stroke-dasharray="8,8" d="M240,215.59 c0,13.48-10.93,24.41-24.41,24.41H26.41C12.929,240,2,229.07,2,215.59V26.41C2,12.928,12.929,2,26.41,2h189.18 C229.07,2,240,12.928,240,26.41V215.59z"/> </svg> </pattern><pattern id="ProcessOnPattern1028" patternUnits="userSpaceOnUse" width="365.2678571428569" height="254.32142857142776" patternTransform="matrix(1.5219494047619038,0.0,0.0,1.0596726190476156,0.0,0.0)"><svg version="1.1" id="svg2" xmlns:svg="http://www.w3.org/2000/svg" xmlns:dc="http://purl.org/dc/elements/1.1/" xmlns:cc="http://creativecommons.org/ns#" xmlns:rdf="http://www.w3.org/1999/02/22-rdf-syntax-ns#" xmlns="http://www.w3.org/2000/svg" xmlns:xlink="http://www.w3.org/1999/xlink" x="0px" y="0px" width="240px" height="240px" viewBox="0 0 240 240" enable-background="new 0 0 240 240" xml:space="preserve"> <path fill="none" stroke="#000000" stroke-width="2" stroke-miterlimit="10" stroke-dasharray="8,8" d="M240,215.59 c0,13.48-10.93,24.41-24.41,24.41H26.41C12.929,240,2,229.07,2,215.59V26.41C2,12.928,12.929,2,26.41,2h189.18 C229.07,2,240,12.928,240,26.41V215.59z"/> </svg> </pattern><pattern id="ProcessOnPattern1031" patternUnits="userSpaceOnUse" width="75.0" height="75.0" patternTransform="matrix(1.0,0.0,0.0,1.0,0.0,0.0)"><svg version="1.1" id="图层_1" xmlns="http://www.w3.org/2000/svg" xmlns:xlink="http://www.w3.org/1999/xlink" x="0px" y="0px" width="75px" height="75px" viewBox="0 0 75 75" enable-background="new 0 0 75 75" xml:space="preserve"> <g id="Layer_1"> <polygon fill="#FFFFFF" points="37.5,73.789 69.499,55.619 69.499,19.28 37.5,37.45 "/> <polygon fill="#FFFFFF" points="5.502,55.519 37.5,73.688 37.5,37.45 5.502,19.28 "/> <polygon fill="#FFFFFF" points="69.297,19.28 37.5,1.212 5.703,19.28 37.5,37.349 "/> <polygon fill="#FFFFFF" points="37.5,36.238 67.479,19.28 67.378,19.28 "/> <polygon fill="#FFFFFF" points="7.621,19.28 7.521,19.28 37.5,36.238 37.5,36.238 "/> <polygon fill="#FFFFFF" points="37.5,36.238 37.5,36.238 37.5,36.238 "/> <path fill="#444444" d="M69.499,18.069L37.5,0L5.502,18.069l-1.01,0.605v1.211v36.339l31.999,18.169L37.5,75l1.01-0.606 l31.998-18.169V19.886v-1.211L69.499,18.069z M68.489,55.014L38.51,71.972V37.954l29.979-16.958V55.014z M36.491,71.972 L6.511,55.014V20.997l29.98,16.958V71.972z M7.621,19.28L37.5,2.322L67.378,19.28l0,0L37.5,36.238l0,0l0,0L7.621,19.28L7.621,19.28 z"/> <polygon fill="#AE1F23" points="37.602,57.033 54.862,47.241 54.862,27.759 37.602,37.551 "/> <polygon fill="#AE1F23" points="20.138,47.241 37.399,57.033 37.399,37.551 20.138,27.759 "/> <polygon fill="#AE1F23" points="54.66,27.558 37.5,17.766 20.34,27.558 37.5,37.248 "/> <polygon fill="#96BF3D" points="37.5,36.238 52.944,27.558 52.944,27.558 "/> <polygon fill="#96BF3D" points="22.057,27.558 22.057,27.558 37.5,36.238 37.5,36.238 "/> <polygon fill="#96BF3D" points="37.5,36.238 37.5,36.238 37.5,36.238 "/> <path fill="#FFFFFF" d="M54.963,26.346L37.5,16.454l-17.463,9.892l-1.009,0.605v1.211v19.785l17.463,9.892l1.009,0.605l1.01-0.605 l17.462-9.892V28.063v-1.211L54.963,26.346z M53.953,46.736L38.51,55.519V38.055l15.443-8.781V46.736z M36.491,55.519 l-15.444-8.782V29.273l15.444,8.781V55.519z M22.057,27.558L37.5,18.775l15.444,8.681l0,0L37.5,36.238l0,0l0,0L22.057,27.558 L22.057,27.558z"/> </g> </svg> </pattern><pattern id="ProcessOnPattern1037" patternUnits="userSpaceOnUse" width="75.0" height="75.0" patternTransform="matrix(1.0,0.0,0.0,1.0,0.0,0.0)"><svg version="1.1" id="Layer_1" xmlns="http://www.w3.org/2000/svg" xmlns:xlink="http://www.w3.org/1999/xlink" x="0px" y="0px" width="75px" height="75px" viewBox="0 0 75 75" enable-background="new 0 0 75 75" xml:space="preserve"> <polygon fill="#FFFFFF" points="37.5,73.788 69.499,55.618 69.499,19.279 37.5,37.449 "/> <polygon fill="#FFFFFF" points="5.502,55.518 37.5,73.688 37.5,37.449 5.502,19.279 "/> <polygon fill="#FFFFFF" points="69.297,19.279 37.5,1.211 5.703,19.279 37.5,37.349 "/> <polygon fill="#FFFFFF" points="37.5,36.238 67.479,19.279 67.379,19.279 "/> <polygon fill="#FFFFFF" points="7.621,19.279 7.521,19.279 37.5,36.238 37.5,36.238 "/> <polygon fill="#FFFFFF" points="37.5,36.238 37.5,36.238 37.5,36.238 "/> <path fill="#444444" d="M69.499,18.068L37.5,0L5.502,18.068l-1.01,0.605v1.212v36.339l31.999,18.169L37.5,75l1.01-0.606 l31.998-18.169V19.886v-1.212L69.499,18.068z M68.489,55.013L38.51,71.971V37.954l29.979-16.958V55.013z M36.491,71.971 L6.511,55.013V20.996l29.98,16.958V71.971z M7.621,19.279L37.5,2.321l29.879,16.958l0,0L37.5,36.238l0,0l0,0L7.621,19.279 L7.621,19.279z"/> <polygon fill="#4090D7" points="37.602,57.031 54.862,47.24 54.862,27.759 37.602,37.55 "/> <polygon fill="#4090D7" points="20.138,47.24 37.399,57.031 37.399,37.55 20.138,27.759 "/> <polygon fill="#4090D7" points="54.66,27.557 37.5,17.766 20.34,27.557 37.5,37.247 "/> <polygon fill="#96BF3D" points="37.5,36.238 52.944,27.557 52.944,27.557 "/> <polygon fill="#96BF3D" points="22.056,27.557 22.056,27.557 37.5,36.238 37.5,36.238 "/> <polygon fill="#96BF3D" points="37.5,36.238 37.5,36.238 37.5,36.238 "/> <path fill="#FFFFFF" d="M54.963,26.346L37.5,16.453l-17.463,9.893l-1.01,0.605v1.211v19.785l17.464,9.892l1.009,0.606l1.01-0.606 l17.463-9.892V28.062v-1.211L54.963,26.346z M53.953,46.735L38.51,55.518V38.055l15.443-8.782V46.735z M36.491,55.518l-15.444-8.782 V29.273l15.444,8.781V55.518z M22.056,27.557L37.5,18.774l15.444,8.682l0,0L37.5,36.238l0,0l0,0L22.056,27.557L22.056,27.557z"/> </svg> </pattern><pattern id="ProcessOnPattern1043" patternUnits="userSpaceOnUse" width="75.0" height="75.0" patternTransform="matrix(1.0,0.0,0.0,1.0,0.0,0.0)"><svg version="1.1" id="图层_1" xmlns="http://www.w3.org/2000/svg" xmlns:xlink="http://www.w3.org/1999/xlink" x="0px" y="0px" width="75px" height="75px" viewBox="0 0 75 75" enable-background="new 0 0 75 75" xml:space="preserve"> <g id="Layer_1"> <polygon fill="#FFFFFF" points="37.5,73.789 69.499,55.619 69.499,19.28 37.5,37.45 "/> <polygon fill="#FFFFFF" points="5.502,55.519 37.5,73.688 37.5,37.45 5.502,19.28 "/> <polygon fill="#FFFFFF" points="69.297,19.28 37.5,1.212 5.703,19.28 37.5,37.349 "/> <polygon fill="#FFFFFF" points="37.5,36.238 67.479,19.28 67.378,19.28 "/> <polygon fill="#FFFFFF" points="7.621,19.28 7.521,19.28 37.5,36.238 37.5,36.238 "/> <polygon fill="#FFFFFF" points="37.5,36.238 37.5,36.238 37.5,36.238 "/> <path fill="#444444" d="M69.499,18.069L37.5,0L5.502,18.069l-1.01,0.605v1.211v36.339l31.999,18.169L37.5,75l1.01-0.606 l31.998-18.169V19.886v-1.211L69.499,18.069z M68.489,55.014L38.51,71.972V37.954l29.979-16.958V55.014z M36.491,71.972 L6.511,55.014V20.997l29.98,16.958V71.972z M7.621,19.28L37.5,2.322L67.378,19.28l0,0L37.5,36.238l0,0l0,0L7.621,19.28L7.621,19.28 z"/> <polygon fill="#AE1F23" points="37.602,57.033 54.862,47.241 54.862,27.759 37.602,37.551 "/> <polygon fill="#AE1F23" points="20.138,47.241 37.399,57.033 37.399,37.551 20.138,27.759 "/> <polygon fill="#AE1F23" points="54.66,27.558 37.5,17.766 20.34,27.558 37.5,37.248 "/> <polygon fill="#96BF3D" points="37.5,36.238 52.944,27.558 52.944,27.558 "/> <polygon fill="#96BF3D" points="22.057,27.558 22.057,27.558 37.5,36.238 37.5,36.238 "/> <polygon fill="#96BF3D" points="37.5,36.238 37.5,36.238 37.5,36.238 "/> <path fill="#FFFFFF" d="M54.963,26.346L37.5,16.454l-17.463,9.892l-1.009,0.605v1.211v19.785l17.463,9.892l1.009,0.605l1.01-0.605 l17.462-9.892V28.063v-1.211L54.963,26.346z M53.953,46.736L38.51,55.519V38.055l15.443-8.781V46.736z M36.491,55.519 l-15.444-8.782V29.273l15.444,8.781V55.519z M22.057,27.558L37.5,18.775l15.444,8.681l0,0L37.5,36.238l0,0l0,0L22.057,27.558 L22.057,27.558z"/> </g> </svg> </pattern><pattern id="ProcessOnPattern1048" patternUnits="userSpaceOnUse" width="75.0" height="75.0" patternTransform="matrix(1.0,0.0,0.0,1.0,0.0,0.0)"><svg version="1.1" id="图层_1" xmlns="http://www.w3.org/2000/svg" xmlns:xlink="http://www.w3.org/1999/xlink" x="0px" y="0px" width="75px" height="75px" viewBox="0 0 75 75" enable-background="new 0 0 75 75" xml:space="preserve"> <g id="Layer_1"> <polygon fill="#FFFFFF" points="37.5,73.789 69.499,55.619 69.499,19.28 37.5,37.45 "/> <polygon fill="#FFFFFF" points="5.502,55.519 37.5,73.688 37.5,37.45 5.502,19.28 "/> <polygon fill="#FFFFFF" points="69.297,19.28 37.5,1.212 5.703,19.28 37.5,37.349 "/> <polygon fill="#FFFFFF" points="37.5,36.238 67.479,19.28 67.378,19.28 "/> <polygon fill="#FFFFFF" points="7.621,19.28 7.521,19.28 37.5,36.238 37.5,36.238 "/> <polygon fill="#FFFFFF" points="37.5,36.238 37.5,36.238 37.5,36.238 "/> <path fill="#444444" d="M69.499,18.069L37.5,0L5.502,18.069l-1.01,0.605v1.211v36.339l31.999,18.169L37.5,75l1.01-0.606 l31.998-18.169V19.886v-1.211L69.499,18.069z M68.489,55.014L38.51,71.972V37.954l29.979-16.958V55.014z M36.491,71.972 L6.511,55.014V20.997l29.98,16.958V71.972z M7.621,19.28L37.5,2.322L67.378,19.28l0,0L37.5,36.238l0,0l0,0L7.621,19.28L7.621,19.28 z"/> <polygon fill="#AE1F23" points="37.602,57.033 54.862,47.241 54.862,27.759 37.602,37.551 "/> <polygon fill="#AE1F23" points="20.138,47.241 37.399,57.033 37.399,37.551 20.138,27.759 "/> <polygon fill="#AE1F23" points="54.66,27.558 37.5,17.766 20.34,27.558 37.5,37.248 "/> <polygon fill="#96BF3D" points="37.5,36.238 52.944,27.558 52.944,27.558 "/> <polygon fill="#96BF3D" points="22.057,27.558 22.057,27.558 37.5,36.238 37.5,36.238 "/> <polygon fill="#96BF3D" points="37.5,36.238 37.5,36.238 37.5,36.238 "/> <path fill="#FFFFFF" d="M54.963,26.346L37.5,16.454l-17.463,9.892l-1.009,0.605v1.211v19.785l17.463,9.892l1.009,0.605l1.01-0.605 l17.462-9.892V28.063v-1.211L54.963,26.346z M53.953,46.736L38.51,55.519V38.055l15.443-8.781V46.736z M36.491,55.519 l-15.444-8.782V29.273l15.444,8.781V55.519z M22.057,27.558L37.5,18.775l15.444,8.681l0,0L37.5,36.238l0,0l0,0L22.057,27.558 L22.057,27.558z"/> </g> </svg> </pattern><pattern id="ProcessOnPattern1053" patternUnits="userSpaceOnUse" width="75.0" height="75.0" patternTransform="matrix(1.0,0.0,0.0,1.0,0.0,0.0)"><svg version="1.1" id="图层_1" xmlns="http://www.w3.org/2000/svg" xmlns:xlink="http://www.w3.org/1999/xlink" x="0px" y="0px" width="75px" height="75px" viewBox="0 0 75 75" enable-background="new 0 0 75 75" xml:space="preserve"> <g id="Layer_1"> <polygon fill="#FFFFFF" points="37.5,73.789 69.499,55.619 69.499,19.28 37.5,37.45 "/> <polygon fill="#FFFFFF" points="5.502,55.519 37.5,73.688 37.5,37.45 5.502,19.28 "/> <polygon fill="#FFFFFF" points="69.297,19.28 37.5,1.212 5.703,19.28 37.5,37.349 "/> <polygon fill="#FFFFFF" points="37.5,36.238 67.479,19.28 67.378,19.28 "/> <polygon fill="#FFFFFF" points="7.621,19.28 7.521,19.28 37.5,36.238 37.5,36.238 "/> <polygon fill="#FFFFFF" points="37.5,36.238 37.5,36.238 37.5,36.238 "/> <path fill="#444444" d="M69.499,18.069L37.5,0L5.502,18.069l-1.01,0.605v1.211v36.339l31.999,18.169L37.5,75l1.01-0.606 l31.998-18.169V19.886v-1.211L69.499,18.069z M68.489,55.014L38.51,71.972V37.954l29.979-16.958V55.014z M36.491,71.972 L6.511,55.014V20.997l29.98,16.958V71.972z M7.621,19.28L37.5,2.322L67.378,19.28l0,0L37.5,36.238l0,0l0,0L7.621,19.28L7.621,19.28 z"/> <polygon fill="#AE1F23" points="37.602,57.033 54.862,47.241 54.862,27.759 37.602,37.551 "/> <polygon fill="#AE1F23" points="20.138,47.241 37.399,57.033 37.399,37.551 20.138,27.759 "/> <polygon fill="#AE1F23" points="54.66,27.558 37.5,17.766 20.34,27.558 37.5,37.248 "/> <polygon fill="#96BF3D" points="37.5,36.238 52.944,27.558 52.944,27.558 "/> <polygon fill="#96BF3D" points="22.057,27.558 22.057,27.558 37.5,36.238 37.5,36.238 "/> <polygon fill="#96BF3D" points="37.5,36.238 37.5,36.238 37.5,36.238 "/> <path fill="#FFFFFF" d="M54.963,26.346L37.5,16.454l-17.463,9.892l-1.009,0.605v1.211v19.785l17.463,9.892l1.009,0.605l1.01-0.605 l17.462-9.892V28.063v-1.211L54.963,26.346z M53.953,46.736L38.51,55.519V38.055l15.443-8.781V46.736z M36.491,55.519 l-15.444-8.782V29.273l15.444,8.781V55.519z M22.057,27.558L37.5,18.775l15.444,8.681l0,0L37.5,36.238l0,0l0,0L22.057,27.558 L22.057,27.558z"/> </g> </svg> </pattern><pattern id="ProcessOnPattern1058" patternUnits="userSpaceOnUse" width="75.0" height="75.0" patternTransform="matrix(1.0,0.0,0.0,1.0,0.0,0.0)"><svg version="1.1" id="图层_1" xmlns="http://www.w3.org/2000/svg" xmlns:xlink="http://www.w3.org/1999/xlink" x="0px" y="0px" width="75px" height="75px" viewBox="0 0 75 75" enable-background="new 0 0 75 75" xml:space="preserve"> <g id="Layer_1"> <polygon fill="#FFFFFF" points="37.5,73.789 69.499,55.619 69.499,19.28 37.5,37.45 "/> <polygon fill="#FFFFFF" points="5.502,55.519 37.5,73.688 37.5,37.45 5.502,19.28 "/> <polygon fill="#FFFFFF" points="69.297,19.28 37.5,1.212 5.703,19.28 37.5,37.349 "/> <polygon fill="#FFFFFF" points="37.5,36.238 67.479,19.28 67.378,19.28 "/> <polygon fill="#FFFFFF" points="7.621,19.28 7.521,19.28 37.5,36.238 37.5,36.238 "/> <polygon fill="#FFFFFF" points="37.5,36.238 37.5,36.238 37.5,36.238 "/> <path fill="#444444" d="M69.499,18.069L37.5,0L5.502,18.069l-1.01,0.605v1.211v36.339l31.999,18.169L37.5,75l1.01-0.606 l31.998-18.169V19.886v-1.211L69.499,18.069z M68.489,55.014L38.51,71.972V37.954l29.979-16.958V55.014z M36.491,71.972 L6.511,55.014V20.997l29.98,16.958V71.972z M7.621,19.28L37.5,2.322L67.378,19.28l0,0L37.5,36.238l0,0l0,0L7.621,19.28L7.621,19.28 z"/> <polygon fill="#AE1F23" points="37.602,57.033 54.862,47.241 54.862,27.759 37.602,37.551 "/> <polygon fill="#AE1F23" points="20.138,47.241 37.399,57.033 37.399,37.551 20.138,27.759 "/> <polygon fill="#AE1F23" points="54.66,27.558 37.5,17.766 20.34,27.558 37.5,37.248 "/> <polygon fill="#96BF3D" points="37.5,36.238 52.944,27.558 52.944,27.558 "/> <polygon fill="#96BF3D" points="22.057,27.558 22.057,27.558 37.5,36.238 37.5,36.238 "/> <polygon fill="#96BF3D" points="37.5,36.238 37.5,36.238 37.5,36.238 "/> <path fill="#FFFFFF" d="M54.963,26.346L37.5,16.454l-17.463,9.892l-1.009,0.605v1.211v19.785l17.463,9.892l1.009,0.605l1.01-0.605 l17.462-9.892V28.063v-1.211L54.963,26.346z M53.953,46.736L38.51,55.519V38.055l15.443-8.781V46.736z M36.491,55.519 l-15.444-8.782V29.273l15.444,8.781V55.519z M22.057,27.558L37.5,18.775l15.444,8.681l0,0L37.5,36.238l0,0l0,0L22.057,27.558 L22.057,27.558z"/> </g> </svg> </pattern><pattern id="ProcessOnPattern1063" patternUnits="userSpaceOnUse" width="75.0" height="75.0" patternTransform="matrix(1.0,0.0,0.0,1.0,0.0,0.0)"><svg version="1.1" id="图层_1" xmlns="http://www.w3.org/2000/svg" xmlns:xlink="http://www.w3.org/1999/xlink" x="0px" y="0px" width="75px" height="75px" viewBox="0 0 75 75" enable-background="new 0 0 75 75" xml:space="preserve"> <g id="Layer_1"> <polygon fill="#FFFFFF" points="37.5,73.789 69.499,55.619 69.499,19.28 37.5,37.45 "/> <polygon fill="#FFFFFF" points="5.502,55.519 37.5,73.688 37.5,37.45 5.502,19.28 "/> <polygon fill="#FFFFFF" points="69.297,19.28 37.5,1.212 5.703,19.28 37.5,37.349 "/> <polygon fill="#FFFFFF" points="37.5,36.238 67.479,19.28 67.378,19.28 "/> <polygon fill="#FFFFFF" points="7.621,19.28 7.521,19.28 37.5,36.238 37.5,36.238 "/> <polygon fill="#FFFFFF" points="37.5,36.238 37.5,36.238 37.5,36.238 "/> <path fill="#444444" d="M69.499,18.069L37.5,0L5.502,18.069l-1.01,0.605v1.211v36.339l31.999,18.169L37.5,75l1.01-0.606 l31.998-18.169V19.886v-1.211L69.499,18.069z M68.489,55.014L38.51,71.972V37.954l29.979-16.958V55.014z M36.491,71.972 L6.511,55.014V20.997l29.98,16.958V71.972z M7.621,19.28L37.5,2.322L67.378,19.28l0,0L37.5,36.238l0,0l0,0L7.621,19.28L7.621,19.28 z"/> <polygon fill="#AE1F23" points="37.602,57.033 54.862,47.241 54.862,27.759 37.602,37.551 "/> <polygon fill="#AE1F23" points="20.138,47.241 37.399,57.033 37.399,37.551 20.138,27.759 "/> <polygon fill="#AE1F23" points="54.66,27.558 37.5,17.766 20.34,27.558 37.5,37.248 "/> <polygon fill="#96BF3D" points="37.5,36.238 52.944,27.558 52.944,27.558 "/> <polygon fill="#96BF3D" points="22.057,27.558 22.057,27.558 37.5,36.238 37.5,36.238 "/> <polygon fill="#96BF3D" points="37.5,36.238 37.5,36.238 37.5,36.238 "/> <path fill="#FFFFFF" d="M54.963,26.346L37.5,16.454l-17.463,9.892l-1.009,0.605v1.211v19.785l17.463,9.892l1.009,0.605l1.01-0.605 l17.462-9.892V28.063v-1.211L54.963,26.346z M53.953,46.736L38.51,55.519V38.055l15.443-8.781V46.736z M36.491,55.519 l-15.444-8.782V29.273l15.444,8.781V55.519z M22.057,27.558L37.5,18.775l15.444,8.681l0,0L37.5,36.238l0,0l0,0L22.057,27.558 L22.057,27.558z"/> </g> </svg> </pattern><pattern id="ProcessOnPattern1068" patternUnits="userSpaceOnUse" width="75.0" height="75.0" patternTransform="matrix(1.0,0.0,0.0,1.0,0.0,0.0)"><svg version="1.1" id="图层_1" xmlns="http://www.w3.org/2000/svg" xmlns:xlink="http://www.w3.org/1999/xlink" x="0px" y="0px" width="75px" height="75px" viewBox="0 0 75 75" enable-background="new 0 0 75 75" xml:space="preserve"> <g id="Layer_1"> <polygon fill="#FFFFFF" points="37.5,73.789 69.499,55.619 69.499,19.28 37.5,37.45 "/> <polygon fill="#FFFFFF" points="5.502,55.519 37.5,73.688 37.5,37.45 5.502,19.28 "/> <polygon fill="#FFFFFF" points="69.297,19.28 37.5,1.212 5.703,19.28 37.5,37.349 "/> <polygon fill="#FFFFFF" points="37.5,36.238 67.479,19.28 67.378,19.28 "/> <polygon fill="#FFFFFF" points="7.621,19.28 7.521,19.28 37.5,36.238 37.5,36.238 "/> <polygon fill="#FFFFFF" points="37.5,36.238 37.5,36.238 37.5,36.238 "/> <path fill="#444444" d="M69.499,18.069L37.5,0L5.502,18.069l-1.01,0.605v1.211v36.339l31.999,18.169L37.5,75l1.01-0.606 l31.998-18.169V19.886v-1.211L69.499,18.069z M68.489,55.014L38.51,71.972V37.954l29.979-16.958V55.014z M36.491,71.972 L6.511,55.014V20.997l29.98,16.958V71.972z M7.621,19.28L37.5,2.322L67.378,19.28l0,0L37.5,36.238l0,0l0,0L7.621,19.28L7.621,19.28 z"/> <polygon fill="#AE1F23" points="37.602,57.033 54.862,47.241 54.862,27.759 37.602,37.551 "/> <polygon fill="#AE1F23" points="20.138,47.241 37.399,57.033 37.399,37.551 20.138,27.759 "/> <polygon fill="#AE1F23" points="54.66,27.558 37.5,17.766 20.34,27.558 37.5,37.248 "/> <polygon fill="#96BF3D" points="37.5,36.238 52.944,27.558 52.944,27.558 "/> <polygon fill="#96BF3D" points="22.057,27.558 22.057,27.558 37.5,36.238 37.5,36.238 "/> <polygon fill="#96BF3D" points="37.5,36.238 37.5,36.238 37.5,36.238 "/> <path fill="#FFFFFF" d="M54.963,26.346L37.5,16.454l-17.463,9.892l-1.009,0.605v1.211v19.785l17.463,9.892l1.009,0.605l1.01-0.605 l17.462-9.892V28.063v-1.211L54.963,26.346z M53.953,46.736L38.51,55.519V38.055l15.443-8.781V46.736z M36.491,55.519 l-15.444-8.782V29.273l15.444,8.781V55.519z M22.057,27.558L37.5,18.775l15.444,8.681l0,0L37.5,36.238l0,0l0,0L22.057,27.558 L22.057,27.558z"/> </g> </svg> </pattern><pattern id="ProcessOnPattern1073" patternUnits="userSpaceOnUse" width="75.0" height="75.0" patternTransform="matrix(1.0,0.0,0.0,1.0,0.0,0.0)"><svg version="1.1" id="图层_1" xmlns="http://www.w3.org/2000/svg" xmlns:xlink="http://www.w3.org/1999/xlink" x="0px" y="0px" width="75px" height="75px" viewBox="0 0 75 75" enable-background="new 0 0 75 75" xml:space="preserve"> <g id="Layer_1"> <polygon fill="#FFFFFF" points="37.5,73.789 69.499,55.619 69.499,19.28 37.5,37.45 "/> <polygon fill="#FFFFFF" points="5.502,55.519 37.5,73.688 37.5,37.45 5.502,19.28 "/> <polygon fill="#FFFFFF" points="69.297,19.28 37.5,1.212 5.703,19.28 37.5,37.349 "/> <polygon fill="#FFFFFF" points="37.5,36.238 67.479,19.28 67.378,19.28 "/> <polygon fill="#FFFFFF" points="7.621,19.28 7.521,19.28 37.5,36.238 37.5,36.238 "/> <polygon fill="#FFFFFF" points="37.5,36.238 37.5,36.238 37.5,36.238 "/> <path fill="#444444" d="M69.499,18.069L37.5,0L5.502,18.069l-1.01,0.605v1.211v36.339l31.999,18.169L37.5,75l1.01-0.606 l31.998-18.169V19.886v-1.211L69.499,18.069z M68.489,55.014L38.51,71.972V37.954l29.979-16.958V55.014z M36.491,71.972 L6.511,55.014V20.997l29.98,16.958V71.972z M7.621,19.28L37.5,2.322L67.378,19.28l0,0L37.5,36.238l0,0l0,0L7.621,19.28L7.621,19.28 z"/> <polygon fill="#AE1F23" points="37.602,57.033 54.862,47.241 54.862,27.759 37.602,37.551 "/> <polygon fill="#AE1F23" points="20.138,47.241 37.399,57.033 37.399,37.551 20.138,27.759 "/> <polygon fill="#AE1F23" points="54.66,27.558 37.5,17.766 20.34,27.558 37.5,37.248 "/> <polygon fill="#96BF3D" points="37.5,36.238 52.944,27.558 52.944,27.558 "/> <polygon fill="#96BF3D" points="22.057,27.558 22.057,27.558 37.5,36.238 37.5,36.238 "/> <polygon fill="#96BF3D" points="37.5,36.238 37.5,36.238 37.5,36.238 "/> <path fill="#FFFFFF" d="M54.963,26.346L37.5,16.454l-17.463,9.892l-1.009,0.605v1.211v19.785l17.463,9.892l1.009,0.605l1.01-0.605 l17.462-9.892V28.063v-1.211L54.963,26.346z M53.953,46.736L38.51,55.519V38.055l15.443-8.781V46.736z M36.491,55.519 l-15.444-8.782V29.273l15.444,8.781V55.519z M22.057,27.558L37.5,18.775l15.444,8.681l0,0L37.5,36.238l0,0l0,0L22.057,27.558 L22.057,27.558z"/> </g> </svg> </pattern><pattern id="ProcessOnPattern1078" patternUnits="userSpaceOnUse" width="75.0" height="75.0" patternTransform="matrix(1.0,0.0,0.0,1.0,0.0,0.0)"><svg version="1.1" id="Layer_1" xmlns="http://www.w3.org/2000/svg" xmlns:xlink="http://www.w3.org/1999/xlink" x="0px" y="0px" width="75px" height="75px" viewBox="0 0 75 75" enable-background="new 0 0 75 75" xml:space="preserve"> <polygon fill="#FFFFFF" points="37.5,73.788 69.499,55.618 69.499,19.279 37.5,37.449 "/> <polygon fill="#FFFFFF" points="5.502,55.518 37.5,73.688 37.5,37.449 5.502,19.279 "/> <polygon fill="#FFFFFF" points="69.297,19.279 37.5,1.211 5.703,19.279 37.5,37.349 "/> <polygon fill="#FFFFFF" points="37.5,36.238 67.479,19.279 67.379,19.279 "/> <polygon fill="#FFFFFF" points="7.621,19.279 7.521,19.279 37.5,36.238 37.5,36.238 "/> <polygon fill="#FFFFFF" points="37.5,36.238 37.5,36.238 37.5,36.238 "/> <path fill="#444444" d="M69.499,18.068L37.5,0L5.502,18.068l-1.01,0.605v1.212v36.339l31.999,18.169L37.5,75l1.01-0.606 l31.998-18.169V19.886v-1.212L69.499,18.068z M68.489,55.013L38.51,71.971V37.954l29.979-16.958V55.013z M36.491,71.971 L6.511,55.013V20.996l29.98,16.958V71.971z M7.621,19.279L37.5,2.321l29.879,16.958l0,0L37.5,36.238l0,0l0,0L7.621,19.279 L7.621,19.279z"/> <polygon fill="#4090D7" points="37.602,57.031 54.862,47.24 54.862,27.759 37.602,37.55 "/> <polygon fill="#4090D7" points="20.138,47.24 37.399,57.031 37.399,37.55 20.138,27.759 "/> <polygon fill="#4090D7" points="54.66,27.557 37.5,17.766 20.34,27.557 37.5,37.247 "/> <polygon fill="#96BF3D" points="37.5,36.238 52.944,27.557 52.944,27.557 "/> <polygon fill="#96BF3D" points="22.056,27.557 22.056,27.557 37.5,36.238 37.5,36.238 "/> <polygon fill="#96BF3D" points="37.5,36.238 37.5,36.238 37.5,36.238 "/> <path fill="#FFFFFF" d="M54.963,26.346L37.5,16.453l-17.463,9.893l-1.01,0.605v1.211v19.785l17.464,9.892l1.009,0.606l1.01-0.606 l17.463-9.892V28.062v-1.211L54.963,26.346z M53.953,46.735L38.51,55.518V38.055l15.443-8.782V46.735z M36.491,55.518l-15.444-8.782 V29.273l15.444,8.781V55.518z M22.056,27.557L37.5,18.774l15.444,8.682l0,0L37.5,36.238l0,0l0,0L22.056,27.557L22.056,27.557z"/> </svg> </pattern><pattern id="ProcessOnPattern1084" patternUnits="userSpaceOnUse" width="75.0" height="75.0" patternTransform="matrix(1.0,0.0,0.0,1.0,0.0,0.0)"><svg version="1.1" id="Layer_1" xmlns="http://www.w3.org/2000/svg" xmlns:xlink="http://www.w3.org/1999/xlink" x="0px" y="0px" width="75px" height="75px" viewBox="0 0 75 75" enable-background="new 0 0 75 75" xml:space="preserve"> <polygon fill="#FFFFFF" points="37.5,73.788 69.499,55.618 69.499,19.279 37.5,37.449 "/> <polygon fill="#FFFFFF" points="5.502,55.518 37.5,73.688 37.5,37.449 5.502,19.279 "/> <polygon fill="#FFFFFF" points="69.297,19.279 37.5,1.211 5.703,19.279 37.5,37.349 "/> <polygon fill="#FFFFFF" points="37.5,36.238 67.479,19.279 67.379,19.279 "/> <polygon fill="#FFFFFF" points="7.621,19.279 7.521,19.279 37.5,36.238 37.5,36.238 "/> <polygon fill="#FFFFFF" points="37.5,36.238 37.5,36.238 37.5,36.238 "/> <path fill="#444444" d="M69.499,18.068L37.5,0L5.502,18.068l-1.01,0.605v1.212v36.339l31.999,18.169L37.5,75l1.01-0.606 l31.998-18.169V19.886v-1.212L69.499,18.068z M68.489,55.013L38.51,71.971V37.954l29.979-16.958V55.013z M36.491,71.971 L6.511,55.013V20.996l29.98,16.958V71.971z M7.621,19.279L37.5,2.321l29.879,16.958l0,0L37.5,36.238l0,0l0,0L7.621,19.279 L7.621,19.279z"/> <polygon fill="#4090D7" points="37.602,57.031 54.862,47.24 54.862,27.759 37.602,37.55 "/> <polygon fill="#4090D7" points="20.138,47.24 37.399,57.031 37.399,37.55 20.138,27.759 "/> <polygon fill="#4090D7" points="54.66,27.557 37.5,17.766 20.34,27.557 37.5,37.247 "/> <polygon fill="#96BF3D" points="37.5,36.238 52.944,27.557 52.944,27.557 "/> <polygon fill="#96BF3D" points="22.056,27.557 22.056,27.557 37.5,36.238 37.5,36.238 "/> <polygon fill="#96BF3D" points="37.5,36.238 37.5,36.238 37.5,36.238 "/> <path fill="#FFFFFF" d="M54.963,26.346L37.5,16.453l-17.463,9.893l-1.01,0.605v1.211v19.785l17.464,9.892l1.009,0.606l1.01-0.606 l17.463-9.892V28.062v-1.211L54.963,26.346z M53.953,46.735L38.51,55.518V38.055l15.443-8.782V46.735z M36.491,55.518l-15.444-8.782 V29.273l15.444,8.781V55.518z M22.056,27.557L37.5,18.774l15.444,8.682l0,0L37.5,36.238l0,0l0,0L22.056,27.557L22.056,27.557z"/> </svg> </pattern><pattern id="ProcessOnPattern1090" patternUnits="userSpaceOnUse" width="75.0" height="75.0" patternTransform="matrix(1.0,0.0,0.0,1.0,0.0,0.0)"><svg version="1.1" id="Layer_1" xmlns="http://www.w3.org/2000/svg" xmlns:xlink="http://www.w3.org/1999/xlink" x="0px" y="0px" width="75px" height="75px" viewBox="0 0 75 75" enable-background="new 0 0 75 75" xml:space="preserve"> <polygon fill="#FFFFFF" points="37.5,73.788 69.499,55.618 69.499,19.279 37.5,37.449 "/> <polygon fill="#FFFFFF" points="5.502,55.518 37.5,73.688 37.5,37.449 5.502,19.279 "/> <polygon fill="#FFFFFF" points="69.297,19.279 37.5,1.211 5.703,19.279 37.5,37.349 "/> <polygon fill="#FFFFFF" points="37.5,36.238 67.479,19.279 67.379,19.279 "/> <polygon fill="#FFFFFF" points="7.621,19.279 7.521,19.279 37.5,36.238 37.5,36.238 "/> <polygon fill="#FFFFFF" points="37.5,36.238 37.5,36.238 37.5,36.238 "/> <path fill="#444444" d="M69.499,18.068L37.5,0L5.502,18.068l-1.01,0.605v1.212v36.339l31.999,18.169L37.5,75l1.01-0.606 l31.998-18.169V19.886v-1.212L69.499,18.068z M68.489,55.013L38.51,71.971V37.954l29.979-16.958V55.013z M36.491,71.971 L6.511,55.013V20.996l29.98,16.958V71.971z M7.621,19.279L37.5,2.321l29.879,16.958l0,0L37.5,36.238l0,0l0,0L7.621,19.279 L7.621,19.279z"/> <polygon fill="#4090D7" points="37.602,57.031 54.862,47.24 54.862,27.759 37.602,37.55 "/> <polygon fill="#4090D7" points="20.138,47.24 37.399,57.031 37.399,37.55 20.138,27.759 "/> <polygon fill="#4090D7" points="54.66,27.557 37.5,17.766 20.34,27.557 37.5,37.247 "/> <polygon fill="#96BF3D" points="37.5,36.238 52.944,27.557 52.944,27.557 "/> <polygon fill="#96BF3D" points="22.056,27.557 22.056,27.557 37.5,36.238 37.5,36.238 "/> <polygon fill="#96BF3D" points="37.5,36.238 37.5,36.238 37.5,36.238 "/> <path fill="#FFFFFF" d="M54.963,26.346L37.5,16.453l-17.463,9.893l-1.01,0.605v1.211v19.785l17.464,9.892l1.009,0.606l1.01-0.606 l17.463-9.892V28.062v-1.211L54.963,26.346z M53.953,46.735L38.51,55.518V38.055l15.443-8.782V46.735z M36.491,55.518l-15.444-8.782 V29.273l15.444,8.781V55.518z M22.056,27.557L37.5,18.774l15.444,8.682l0,0L37.5,36.238l0,0l0,0L22.056,27.557L22.056,27.557z"/> </svg> </pattern><pattern id="ProcessOnPattern1095" patternUnits="userSpaceOnUse" width="75.0" height="75.0" patternTransform="matrix(1.0,0.0,0.0,1.0,0.0,0.0)"><svg version="1.1" id="Layer_1" xmlns="http://www.w3.org/2000/svg" xmlns:xlink="http://www.w3.org/1999/xlink" x="0px" y="0px" width="75px" height="75px" viewBox="0 0 75 75" enable-background="new 0 0 75 75" xml:space="preserve"> <polygon fill="#FFFFFF" points="37.5,73.788 69.499,55.618 69.499,19.279 37.5,37.449 "/> <polygon fill="#FFFFFF" points="5.502,55.518 37.5,73.688 37.5,37.449 5.502,19.279 "/> <polygon fill="#FFFFFF" points="69.297,19.279 37.5,1.211 5.703,19.279 37.5,37.349 "/> <polygon fill="#FFFFFF" points="37.5,36.238 67.479,19.279 67.379,19.279 "/> <polygon fill="#FFFFFF" points="7.621,19.279 7.521,19.279 37.5,36.238 37.5,36.238 "/> <polygon fill="#FFFFFF" points="37.5,36.238 37.5,36.238 37.5,36.238 "/> <path fill="#444444" d="M69.499,18.068L37.5,0L5.502,18.068l-1.01,0.605v1.212v36.339l31.999,18.169L37.5,75l1.01-0.606 l31.998-18.169V19.886v-1.212L69.499,18.068z M68.489,55.013L38.51,71.971V37.954l29.979-16.958V55.013z M36.491,71.971 L6.511,55.013V20.996l29.98,16.958V71.971z M7.621,19.279L37.5,2.321l29.879,16.958l0,0L37.5,36.238l0,0l0,0L7.621,19.279 L7.621,19.279z"/> <polygon fill="#4090D7" points="37.602,57.031 54.862,47.24 54.862,27.759 37.602,37.55 "/> <polygon fill="#4090D7" points="20.138,47.24 37.399,57.031 37.399,37.55 20.138,27.759 "/> <polygon fill="#4090D7" points="54.66,27.557 37.5,17.766 20.34,27.557 37.5,37.247 "/> <polygon fill="#96BF3D" points="37.5,36.238 52.944,27.557 52.944,27.557 "/> <polygon fill="#96BF3D" points="22.056,27.557 22.056,27.557 37.5,36.238 37.5,36.238 "/> <polygon fill="#96BF3D" points="37.5,36.238 37.5,36.238 37.5,36.238 "/> <path fill="#FFFFFF" d="M54.963,26.346L37.5,16.453l-17.463,9.893l-1.01,0.605v1.211v19.785l17.464,9.892l1.009,0.606l1.01-0.606 l17.463-9.892V28.062v-1.211L54.963,26.346z M53.953,46.735L38.51,55.518V38.055l15.443-8.782V46.735z M36.491,55.518l-15.444-8.782 V29.273l15.444,8.781V55.518z M22.056,27.557L37.5,18.774l15.444,8.682l0,0L37.5,36.238l0,0l0,0L22.056,27.557L22.056,27.557z"/> </svg> </pattern><pattern id="ProcessOnPattern1100" patternUnits="userSpaceOnUse" width="75.0" height="75.0" patternTransform="matrix(1.0,0.0,0.0,1.0,0.0,0.0)"><svg version="1.1" id="图层_1" xmlns="http://www.w3.org/2000/svg" xmlns:xlink="http://www.w3.org/1999/xlink" x="0px" y="0px" width="75px" height="75px" viewBox="0 0 75 75" enable-background="new 0 0 75 75" xml:space="preserve"> <g id="Layer_1"> <polygon fill="#FFFFFF" points="37.5,73.789 69.499,55.619 69.499,19.28 37.5,37.45 "/> <polygon fill="#FFFFFF" points="5.502,55.519 37.5,73.688 37.5,37.45 5.502,19.28 "/> <polygon fill="#FFFFFF" points="69.297,19.28 37.5,1.212 5.703,19.28 37.5,37.349 "/> <polygon fill="#FFFFFF" points="37.5,36.238 67.479,19.28 67.378,19.28 "/> <polygon fill="#FFFFFF" points="7.621,19.28 7.521,19.28 37.5,36.238 37.5,36.238 "/> <polygon fill="#FFFFFF" points="37.5,36.238 37.5,36.238 37.5,36.238 "/> <path fill="#444444" d="M69.499,18.069L37.5,0L5.502,18.069l-1.01,0.605v1.211v36.339l31.999,18.169L37.5,75l1.01-0.606 l31.998-18.169V19.886v-1.211L69.499,18.069z M68.489,55.014L38.51,71.972V37.954l29.979-16.958V55.014z M36.491,71.972 L6.511,55.014V20.997l29.98,16.958V71.972z M7.621,19.28L37.5,2.322L67.378,19.28l0,0L37.5,36.238l0,0l0,0L7.621,19.28L7.621,19.28 z"/> <polygon fill="#AE1F23" points="37.602,57.033 54.862,47.241 54.862,27.759 37.602,37.551 "/> <polygon fill="#AE1F23" points="20.138,47.241 37.399,57.033 37.399,37.551 20.138,27.759 "/> <polygon fill="#AE1F23" points="54.66,27.558 37.5,17.766 20.34,27.558 37.5,37.248 "/> <polygon fill="#96BF3D" points="37.5,36.238 52.944,27.558 52.944,27.558 "/> <polygon fill="#96BF3D" points="22.057,27.558 22.057,27.558 37.5,36.238 37.5,36.238 "/> <polygon fill="#96BF3D" points="37.5,36.238 37.5,36.238 37.5,36.238 "/> <path fill="#FFFFFF" d="M54.963,26.346L37.5,16.454l-17.463,9.892l-1.009,0.605v1.211v19.785l17.463,9.892l1.009,0.605l1.01-0.605 l17.462-9.892V28.063v-1.211L54.963,26.346z M53.953,46.736L38.51,55.519V38.055l15.443-8.781V46.736z M36.491,55.519 l-15.444-8.782V29.273l15.444,8.781V55.519z M22.057,27.558L37.5,18.775l15.444,8.681l0,0L37.5,36.238l0,0l0,0L22.057,27.558 L22.057,27.558z"/> </g> </svg> </pattern><pattern id="ProcessOnPattern1105" patternUnits="userSpaceOnUse" width="75.0" height="75.0" patternTransform="matrix(1.0,0.0,0.0,1.0,0.0,0.0)"><svg version="1.1" id="图层_1" xmlns="http://www.w3.org/2000/svg" xmlns:xlink="http://www.w3.org/1999/xlink" x="0px" y="0px" width="75px" height="75px" viewBox="0 0 75 75" enable-background="new 0 0 75 75" xml:space="preserve"> <g id="Layer_1"> <polygon fill="#FFFFFF" points="37.5,73.789 69.499,55.619 69.499,19.28 37.5,37.45 "/> <polygon fill="#FFFFFF" points="5.502,55.519 37.5,73.688 37.5,37.45 5.502,19.28 "/> <polygon fill="#FFFFFF" points="69.297,19.28 37.5,1.212 5.703,19.28 37.5,37.349 "/> <polygon fill="#FFFFFF" points="37.5,36.238 67.479,19.28 67.378,19.28 "/> <polygon fill="#FFFFFF" points="7.621,19.28 7.521,19.28 37.5,36.238 37.5,36.238 "/> <polygon fill="#FFFFFF" points="37.5,36.238 37.5,36.238 37.5,36.238 "/> <path fill="#444444" d="M69.499,18.069L37.5,0L5.502,18.069l-1.01,0.605v1.211v36.339l31.999,18.169L37.5,75l1.01-0.606 l31.998-18.169V19.886v-1.211L69.499,18.069z M68.489,55.014L38.51,71.972V37.954l29.979-16.958V55.014z M36.491,71.972 L6.511,55.014V20.997l29.98,16.958V71.972z M7.621,19.28L37.5,2.322L67.378,19.28l0,0L37.5,36.238l0,0l0,0L7.621,19.28L7.621,19.28 z"/> <polygon fill="#AE1F23" points="37.602,57.033 54.862,47.241 54.862,27.759 37.602,37.551 "/> <polygon fill="#AE1F23" points="20.138,47.241 37.399,57.033 37.399,37.551 20.138,27.759 "/> <polygon fill="#AE1F23" points="54.66,27.558 37.5,17.766 20.34,27.558 37.5,37.248 "/> <polygon fill="#96BF3D" points="37.5,36.238 52.944,27.558 52.944,27.558 "/> <polygon fill="#96BF3D" points="22.057,27.558 22.057,27.558 37.5,36.238 37.5,36.238 "/> <polygon fill="#96BF3D" points="37.5,36.238 37.5,36.238 37.5,36.238 "/> <path fill="#FFFFFF" d="M54.963,26.346L37.5,16.454l-17.463,9.892l-1.009,0.605v1.211v19.785l17.463,9.892l1.009,0.605l1.01-0.605 l17.462-9.892V28.063v-1.211L54.963,26.346z M53.953,46.736L38.51,55.519V38.055l15.443-8.781V46.736z M36.491,55.519 l-15.444-8.782V29.273l15.444,8.781V55.519z M22.057,27.558L37.5,18.775l15.444,8.681l0,0L37.5,36.238l0,0l0,0L22.057,27.558 L22.057,27.558z"/> </g> </svg> </pattern><pattern id="ProcessOnPattern1110" patternUnits="userSpaceOnUse" width="75.0" height="75.0" patternTransform="matrix(1.0,0.0,0.0,1.0,0.0,0.0)"><svg version="1.1" id="图层_1" xmlns="http://www.w3.org/2000/svg" xmlns:xlink="http://www.w3.org/1999/xlink" x="0px" y="0px" width="75px" height="75px" viewBox="0 0 75 75" enable-background="new 0 0 75 75" xml:space="preserve"> <g id="Layer_1"> <polygon fill="#FFFFFF" points="37.5,73.789 69.499,55.619 69.499,19.28 37.5,37.45 "/> <polygon fill="#FFFFFF" points="5.502,55.519 37.5,73.688 37.5,37.45 5.502,19.28 "/> <polygon fill="#FFFFFF" points="69.297,19.28 37.5,1.212 5.703,19.28 37.5,37.349 "/> <polygon fill="#FFFFFF" points="37.5,36.238 67.479,19.28 67.378,19.28 "/> <polygon fill="#FFFFFF" points="7.621,19.28 7.521,19.28 37.5,36.238 37.5,36.238 "/> <polygon fill="#FFFFFF" points="37.5,36.238 37.5,36.238 37.5,36.238 "/> <path fill="#444444" d="M69.499,18.069L37.5,0L5.502,18.069l-1.01,0.605v1.211v36.339l31.999,18.169L37.5,75l1.01-0.606 l31.998-18.169V19.886v-1.211L69.499,18.069z M68.489,55.014L38.51,71.972V37.954l29.979-16.958V55.014z M36.491,71.972 L6.511,55.014V20.997l29.98,16.958V71.972z M7.621,19.28L37.5,2.322L67.378,19.28l0,0L37.5,36.238l0,0l0,0L7.621,19.28L7.621,19.28 z"/> <polygon fill="#AE1F23" points="37.602,57.033 54.862,47.241 54.862,27.759 37.602,37.551 "/> <polygon fill="#AE1F23" points="20.138,47.241 37.399,57.033 37.399,37.551 20.138,27.759 "/> <polygon fill="#AE1F23" points="54.66,27.558 37.5,17.766 20.34,27.558 37.5,37.248 "/> <polygon fill="#96BF3D" points="37.5,36.238 52.944,27.558 52.944,27.558 "/> <polygon fill="#96BF3D" points="22.057,27.558 22.057,27.558 37.5,36.238 37.5,36.238 "/> <polygon fill="#96BF3D" points="37.5,36.238 37.5,36.238 37.5,36.238 "/> <path fill="#FFFFFF" d="M54.963,26.346L37.5,16.454l-17.463,9.892l-1.009,0.605v1.211v19.785l17.463,9.892l1.009,0.605l1.01-0.605 l17.462-9.892V28.063v-1.211L54.963,26.346z M53.953,46.736L38.51,55.519V38.055l15.443-8.781V46.736z M36.491,55.519 l-15.444-8.782V29.273l15.444,8.781V55.519z M22.057,27.558L37.5,18.775l15.444,8.681l0,0L37.5,36.238l0,0l0,0L22.057,27.558 L22.057,27.558z"/> </g> </svg> </pattern><pattern id="ProcessOnPattern1115" patternUnits="userSpaceOnUse" width="75.0" height="75.0" patternTransform="matrix(1.0,0.0,0.0,1.0,0.0,0.0)"><svg version="1.1" id="图层_1" xmlns="http://www.w3.org/2000/svg" xmlns:xlink="http://www.w3.org/1999/xlink" x="0px" y="0px" width="75px" height="75px" viewBox="0 0 75 75" enable-background="new 0 0 75 75" xml:space="preserve"> <g id="Layer_1"> <polygon fill="#FFFFFF" points="37.5,73.789 69.499,55.619 69.499,19.28 37.5,37.45 "/> <polygon fill="#FFFFFF" points="5.502,55.519 37.5,73.688 37.5,37.45 5.502,19.28 "/> <polygon fill="#FFFFFF" points="69.297,19.28 37.5,1.212 5.703,19.28 37.5,37.349 "/> <polygon fill="#FFFFFF" points="37.5,36.238 67.479,19.28 67.378,19.28 "/> <polygon fill="#FFFFFF" points="7.621,19.28 7.521,19.28 37.5,36.238 37.5,36.238 "/> <polygon fill="#FFFFFF" points="37.5,36.238 37.5,36.238 37.5,36.238 "/> <path fill="#444444" d="M69.499,18.069L37.5,0L5.502,18.069l-1.01,0.605v1.211v36.339l31.999,18.169L37.5,75l1.01-0.606 l31.998-18.169V19.886v-1.211L69.499,18.069z M68.489,55.014L38.51,71.972V37.954l29.979-16.958V55.014z M36.491,71.972 L6.511,55.014V20.997l29.98,16.958V71.972z M7.621,19.28L37.5,2.322L67.378,19.28l0,0L37.5,36.238l0,0l0,0L7.621,19.28L7.621,19.28 z"/> <polygon fill="#AE1F23" points="37.602,57.033 54.862,47.241 54.862,27.759 37.602,37.551 "/> <polygon fill="#AE1F23" points="20.138,47.241 37.399,57.033 37.399,37.551 20.138,27.759 "/> <polygon fill="#AE1F23" points="54.66,27.558 37.5,17.766 20.34,27.558 37.5,37.248 "/> <polygon fill="#96BF3D" points="37.5,36.238 52.944,27.558 52.944,27.558 "/> <polygon fill="#96BF3D" points="22.057,27.558 22.057,27.558 37.5,36.238 37.5,36.238 "/> <polygon fill="#96BF3D" points="37.5,36.238 37.5,36.238 37.5,36.238 "/> <path fill="#FFFFFF" d="M54.963,26.346L37.5,16.454l-17.463,9.892l-1.009,0.605v1.211v19.785l17.463,9.892l1.009,0.605l1.01-0.605 l17.462-9.892V28.063v-1.211L54.963,26.346z M53.953,46.736L38.51,55.519V38.055l15.443-8.781V46.736z M36.491,55.519 l-15.444-8.782V29.273l15.444,8.781V55.519z M22.057,27.558L37.5,18.775l15.444,8.681l0,0L37.5,36.238l0,0l0,0L22.057,27.558 L22.057,27.558z"/> </g> </svg> </pattern><pattern id="ProcessOnPattern1120" patternUnits="userSpaceOnUse" width="75.0" height="75.0" patternTransform="matrix(1.0,0.0,0.0,1.0,0.0,0.0)"><svg version="1.1" id="图层_1" xmlns="http://www.w3.org/2000/svg" xmlns:xlink="http://www.w3.org/1999/xlink" x="0px" y="0px" width="75px" height="75px" viewBox="0 0 75 75" enable-background="new 0 0 75 75" xml:space="preserve"> <g id="Layer_1"> <polygon fill="#FFFFFF" points="37.5,73.789 69.499,55.619 69.499,19.28 37.5,37.45 "/> <polygon fill="#FFFFFF" points="5.502,55.519 37.5,73.688 37.5,37.45 5.502,19.28 "/> <polygon fill="#FFFFFF" points="69.297,19.28 37.5,1.212 5.703,19.28 37.5,37.349 "/> <polygon fill="#FFFFFF" points="37.5,36.238 67.479,19.28 67.378,19.28 "/> <polygon fill="#FFFFFF" points="7.621,19.28 7.521,19.28 37.5,36.238 37.5,36.238 "/> <polygon fill="#FFFFFF" points="37.5,36.238 37.5,36.238 37.5,36.238 "/> <path fill="#444444" d="M69.499,18.069L37.5,0L5.502,18.069l-1.01,0.605v1.211v36.339l31.999,18.169L37.5,75l1.01-0.606 l31.998-18.169V19.886v-1.211L69.499,18.069z M68.489,55.014L38.51,71.972V37.954l29.979-16.958V55.014z M36.491,71.972 L6.511,55.014V20.997l29.98,16.958V71.972z M7.621,19.28L37.5,2.322L67.378,19.28l0,0L37.5,36.238l0,0l0,0L7.621,19.28L7.621,19.28 z"/> <polygon fill="#AE1F23" points="37.602,57.033 54.862,47.241 54.862,27.759 37.602,37.551 "/> <polygon fill="#AE1F23" points="20.138,47.241 37.399,57.033 37.399,37.551 20.138,27.759 "/> <polygon fill="#AE1F23" points="54.66,27.558 37.5,17.766 20.34,27.558 37.5,37.248 "/> <polygon fill="#96BF3D" points="37.5,36.238 52.944,27.558 52.944,27.558 "/> <polygon fill="#96BF3D" points="22.057,27.558 22.057,27.558 37.5,36.238 37.5,36.238 "/> <polygon fill="#96BF3D" points="37.5,36.238 37.5,36.238 37.5,36.238 "/> <path fill="#FFFFFF" d="M54.963,26.346L37.5,16.454l-17.463,9.892l-1.009,0.605v1.211v19.785l17.463,9.892l1.009,0.605l1.01-0.605 l17.462-9.892V28.063v-1.211L54.963,26.346z M53.953,46.736L38.51,55.519V38.055l15.443-8.781V46.736z M36.491,55.519 l-15.444-8.782V29.273l15.444,8.781V55.519z M22.057,27.558L37.5,18.775l15.444,8.681l0,0L37.5,36.238l0,0l0,0L22.057,27.558 L22.057,27.558z"/> </g> </svg> </pattern><pattern id="ProcessOnPattern1125" patternUnits="userSpaceOnUse" width="75.0" height="75.0" patternTransform="matrix(1.0,0.0,0.0,1.0,0.0,0.0)"><svg version="1.1" id="Layer_1" xmlns="http://www.w3.org/2000/svg" xmlns:xlink="http://www.w3.org/1999/xlink" x="0px" y="0px" width="75px" height="75px" viewBox="0 0 75 75" enable-background="new 0 0 75 75" xml:space="preserve"> <polygon fill="#FFFFFF" points="37.5,73.788 69.499,55.618 69.499,19.279 37.5,37.449 "/> <polygon fill="#FFFFFF" points="5.502,55.518 37.5,73.688 37.5,37.449 5.502,19.279 "/> <polygon fill="#FFFFFF" points="69.297,19.279 37.5,1.211 5.703,19.279 37.5,37.349 "/> <polygon fill="#FFFFFF" points="37.5,36.238 67.479,19.279 67.379,19.279 "/> <polygon fill="#FFFFFF" points="7.621,19.279 7.521,19.279 37.5,36.238 37.5,36.238 "/> <polygon fill="#FFFFFF" points="37.5,36.238 37.5,36.238 37.5,36.238 "/> <path fill="#444444" d="M69.499,18.068L37.5,0L5.502,18.068l-1.01,0.605v1.212v36.339l31.999,18.169L37.5,75l1.01-0.606 l31.998-18.169V19.886v-1.212L69.499,18.068z M68.489,55.013L38.51,71.971V37.954l29.979-16.958V55.013z M36.491,71.971 L6.511,55.013V20.996l29.98,16.958V71.971z M7.621,19.279L37.5,2.321l29.879,16.958l0,0L37.5,36.238l0,0l0,0L7.621,19.279 L7.621,19.279z"/> <polygon fill="#4090D7" points="37.602,57.031 54.862,47.24 54.862,27.759 37.602,37.55 "/> <polygon fill="#4090D7" points="20.138,47.24 37.399,57.031 37.399,37.55 20.138,27.759 "/> <polygon fill="#4090D7" points="54.66,27.557 37.5,17.766 20.34,27.557 37.5,37.247 "/> <polygon fill="#96BF3D" points="37.5,36.238 52.944,27.557 52.944,27.557 "/> <polygon fill="#96BF3D" points="22.056,27.557 22.056,27.557 37.5,36.238 37.5,36.238 "/> <polygon fill="#96BF3D" points="37.5,36.238 37.5,36.238 37.5,36.238 "/> <path fill="#FFFFFF" d="M54.963,26.346L37.5,16.453l-17.463,9.893l-1.01,0.605v1.211v19.785l17.464,9.892l1.009,0.606l1.01-0.606 l17.463-9.892V28.062v-1.211L54.963,26.346z M53.953,46.735L38.51,55.518V38.055l15.443-8.782V46.735z M36.491,55.518l-15.444-8.782 V29.273l15.444,8.781V55.518z M22.056,27.557L37.5,18.774l15.444,8.682l0,0L37.5,36.238l0,0l0,0L22.056,27.557L22.056,27.557z"/> </svg> </pattern><pattern id="ProcessOnPattern1130" patternUnits="userSpaceOnUse" width="75.0" height="75.0" patternTransform="matrix(1.0,0.0,0.0,1.0,0.0,0.0)"><svg version="1.1" id="Layer_1" xmlns="http://www.w3.org/2000/svg" xmlns:xlink="http://www.w3.org/1999/xlink" x="0px" y="0px" width="75px" height="75px" viewBox="0 0 75 75" enable-background="new 0 0 75 75" xml:space="preserve"> <polygon fill="#FFFFFF" points="37.5,73.788 69.499,55.618 69.499,19.279 37.5,37.449 "/> <polygon fill="#FFFFFF" points="5.502,55.518 37.5,73.688 37.5,37.449 5.502,19.279 "/> <polygon fill="#FFFFFF" points="69.297,19.279 37.5,1.211 5.703,19.279 37.5,37.349 "/> <polygon fill="#FFFFFF" points="37.5,36.238 67.479,19.279 67.379,19.279 "/> <polygon fill="#FFFFFF" points="7.621,19.279 7.521,19.279 37.5,36.238 37.5,36.238 "/> <polygon fill="#FFFFFF" points="37.5,36.238 37.5,36.238 37.5,36.238 "/> <path fill="#444444" d="M69.499,18.068L37.5,0L5.502,18.068l-1.01,0.605v1.212v36.339l31.999,18.169L37.5,75l1.01-0.606 l31.998-18.169V19.886v-1.212L69.499,18.068z M68.489,55.013L38.51,71.971V37.954l29.979-16.958V55.013z M36.491,71.971 L6.511,55.013V20.996l29.98,16.958V71.971z M7.621,19.279L37.5,2.321l29.879,16.958l0,0L37.5,36.238l0,0l0,0L7.621,19.279 L7.621,19.279z"/> <polygon fill="#4090D7" points="37.602,57.031 54.862,47.24 54.862,27.759 37.602,37.55 "/> <polygon fill="#4090D7" points="20.138,47.24 37.399,57.031 37.399,37.55 20.138,27.759 "/> <polygon fill="#4090D7" points="54.66,27.557 37.5,17.766 20.34,27.557 37.5,37.247 "/> <polygon fill="#96BF3D" points="37.5,36.238 52.944,27.557 52.944,27.557 "/> <polygon fill="#96BF3D" points="22.056,27.557 22.056,27.557 37.5,36.238 37.5,36.238 "/> <polygon fill="#96BF3D" points="37.5,36.238 37.5,36.238 37.5,36.238 "/> <path fill="#FFFFFF" d="M54.963,26.346L37.5,16.453l-17.463,9.893l-1.01,0.605v1.211v19.785l17.464,9.892l1.009,0.606l1.01-0.606 l17.463-9.892V28.062v-1.211L54.963,26.346z M53.953,46.735L38.51,55.518V38.055l15.443-8.782V46.735z M36.491,55.518l-15.444-8.782 V29.273l15.444,8.781V55.518z M22.056,27.557L37.5,18.774l15.444,8.682l0,0L37.5,36.238l0,0l0,0L22.056,27.557L22.056,27.557z"/> </svg> </pattern><pattern id="ProcessOnPattern1135" patternUnits="userSpaceOnUse" width="75.0" height="75.0" patternTransform="matrix(1.0,0.0,0.0,1.0,0.0,0.0)"><svg version="1.1" id="Layer_1" xmlns="http://www.w3.org/2000/svg" xmlns:xlink="http://www.w3.org/1999/xlink" x="0px" y="0px" width="75px" height="75px" viewBox="0 0 75 75" enable-background="new 0 0 75 75" xml:space="preserve"> <polygon fill="#FFFFFF" points="37.5,73.788 69.499,55.618 69.499,19.279 37.5,37.449 "/> <polygon fill="#FFFFFF" points="5.502,55.518 37.5,73.688 37.5,37.449 5.502,19.279 "/> <polygon fill="#FFFFFF" points="69.297,19.279 37.5,1.211 5.703,19.279 37.5,37.349 "/> <polygon fill="#FFFFFF" points="37.5,36.238 67.479,19.279 67.379,19.279 "/> <polygon fill="#FFFFFF" points="7.621,19.279 7.521,19.279 37.5,36.238 37.5,36.238 "/> <polygon fill="#FFFFFF" points="37.5,36.238 37.5,36.238 37.5,36.238 "/> <path fill="#444444" d="M69.499,18.068L37.5,0L5.502,18.068l-1.01,0.605v1.212v36.339l31.999,18.169L37.5,75l1.01-0.606 l31.998-18.169V19.886v-1.212L69.499,18.068z M68.489,55.013L38.51,71.971V37.954l29.979-16.958V55.013z M36.491,71.971 L6.511,55.013V20.996l29.98,16.958V71.971z M7.621,19.279L37.5,2.321l29.879,16.958l0,0L37.5,36.238l0,0l0,0L7.621,19.279 L7.621,19.279z"/> <polygon fill="#4090D7" points="37.602,57.031 54.862,47.24 54.862,27.759 37.602,37.55 "/> <polygon fill="#4090D7" points="20.138,47.24 37.399,57.031 37.399,37.55 20.138,27.759 "/> <polygon fill="#4090D7" points="54.66,27.557 37.5,17.766 20.34,27.557 37.5,37.247 "/> <polygon fill="#96BF3D" points="37.5,36.238 52.944,27.557 52.944,27.557 "/> <polygon fill="#96BF3D" points="22.056,27.557 22.056,27.557 37.5,36.238 37.5,36.238 "/> <polygon fill="#96BF3D" points="37.5,36.238 37.5,36.238 37.5,36.238 "/> <path fill="#FFFFFF" d="M54.963,26.346L37.5,16.453l-17.463,9.893l-1.01,0.605v1.211v19.785l17.464,9.892l1.009,0.606l1.01-0.606 l17.463-9.892V28.062v-1.211L54.963,26.346z M53.953,46.735L38.51,55.518V38.055l15.443-8.782V46.735z M36.491,55.518l-15.444-8.782 V29.273l15.444,8.781V55.518z M22.056,27.557L37.5,18.774l15.444,8.682l0,0L37.5,36.238l0,0l0,0L22.056,27.557L22.056,27.557z"/> </svg> </pattern><pattern id="ProcessOnPattern1141" patternUnits="userSpaceOnUse" width="75.0" height="75.0" patternTransform="matrix(1.0,0.0,0.0,1.0,0.0,0.0)"><svg version="1.1" id="图层_1" xmlns="http://www.w3.org/2000/svg" xmlns:xlink="http://www.w3.org/1999/xlink" x="0px" y="0px" width="75px" height="75px" viewBox="0 0 75 75" enable-background="new 0 0 75 75" xml:space="preserve"> <g id="Layer_1"> <polygon fill="#FFFFFF" points="37.5,73.789 69.499,55.619 69.499,19.28 37.5,37.45 "/> <polygon fill="#FFFFFF" points="5.502,55.519 37.5,73.688 37.5,37.45 5.502,19.28 "/> <polygon fill="#FFFFFF" points="69.297,19.28 37.5,1.212 5.703,19.28 37.5,37.349 "/> <polygon fill="#FFFFFF" points="37.5,36.238 67.479,19.28 67.378,19.28 "/> <polygon fill="#FFFFFF" points="7.621,19.28 7.521,19.28 37.5,36.238 37.5,36.238 "/> <polygon fill="#FFFFFF" points="37.5,36.238 37.5,36.238 37.5,36.238 "/> <path fill="#444444" d="M69.499,18.069L37.5,0L5.502,18.069l-1.01,0.605v1.211v36.339l31.999,18.169L37.5,75l1.01-0.606 l31.998-18.169V19.886v-1.211L69.499,18.069z M68.489,55.014L38.51,71.972V37.954l29.979-16.958V55.014z M36.491,71.972 L6.511,55.014V20.997l29.98,16.958V71.972z M7.621,19.28L37.5,2.322L67.378,19.28l0,0L37.5,36.238l0,0l0,0L7.621,19.28L7.621,19.28 z"/> <polygon fill="#AE1F23" points="37.602,57.033 54.862,47.241 54.862,27.759 37.602,37.551 "/> <polygon fill="#AE1F23" points="20.138,47.241 37.399,57.033 37.399,37.551 20.138,27.759 "/> <polygon fill="#AE1F23" points="54.66,27.558 37.5,17.766 20.34,27.558 37.5,37.248 "/> <polygon fill="#96BF3D" points="37.5,36.238 52.944,27.558 52.944,27.558 "/> <polygon fill="#96BF3D" points="22.057,27.558 22.057,27.558 37.5,36.238 37.5,36.238 "/> <polygon fill="#96BF3D" points="37.5,36.238 37.5,36.238 37.5,36.238 "/> <path fill="#FFFFFF" d="M54.963,26.346L37.5,16.454l-17.463,9.892l-1.009,0.605v1.211v19.785l17.463,9.892l1.009,0.605l1.01-0.605 l17.462-9.892V28.063v-1.211L54.963,26.346z M53.953,46.736L38.51,55.519V38.055l15.443-8.781V46.736z M36.491,55.519 l-15.444-8.782V29.273l15.444,8.781V55.519z M22.057,27.558L37.5,18.775l15.444,8.681l0,0L37.5,36.238l0,0l0,0L22.057,27.558 L22.057,27.558z"/> </g> </svg> </pattern><pattern id="ProcessOnPattern1146" patternUnits="userSpaceOnUse" width="75.0" height="75.0" patternTransform="matrix(1.0,0.0,0.0,1.0,0.0,0.0)"><svg version="1.1" id="图层_1" xmlns="http://www.w3.org/2000/svg" xmlns:xlink="http://www.w3.org/1999/xlink" x="0px" y="0px" width="75px" height="75px" viewBox="0 0 75 75" enable-background="new 0 0 75 75" xml:space="preserve"> <g id="Layer_1"> <polygon fill="#FFFFFF" points="37.5,73.789 69.499,55.619 69.499,19.28 37.5,37.45 "/> <polygon fill="#FFFFFF" points="5.502,55.519 37.5,73.688 37.5,37.45 5.502,19.28 "/> <polygon fill="#FFFFFF" points="69.297,19.28 37.5,1.212 5.703,19.28 37.5,37.349 "/> <polygon fill="#FFFFFF" points="37.5,36.238 67.479,19.28 67.378,19.28 "/> <polygon fill="#FFFFFF" points="7.621,19.28 7.521,19.28 37.5,36.238 37.5,36.238 "/> <polygon fill="#FFFFFF" points="37.5,36.238 37.5,36.238 37.5,36.238 "/> <path fill="#444444" d="M69.499,18.069L37.5,0L5.502,18.069l-1.01,0.605v1.211v36.339l31.999,18.169L37.5,75l1.01-0.606 l31.998-18.169V19.886v-1.211L69.499,18.069z M68.489,55.014L38.51,71.972V37.954l29.979-16.958V55.014z M36.491,71.972 L6.511,55.014V20.997l29.98,16.958V71.972z M7.621,19.28L37.5,2.322L67.378,19.28l0,0L37.5,36.238l0,0l0,0L7.621,19.28L7.621,19.28 z"/> <polygon fill="#AE1F23" points="37.602,57.033 54.862,47.241 54.862,27.759 37.602,37.551 "/> <polygon fill="#AE1F23" points="20.138,47.241 37.399,57.033 37.399,37.551 20.138,27.759 "/> <polygon fill="#AE1F23" points="54.66,27.558 37.5,17.766 20.34,27.558 37.5,37.248 "/> <polygon fill="#96BF3D" points="37.5,36.238 52.944,27.558 52.944,27.558 "/> <polygon fill="#96BF3D" points="22.057,27.558 22.057,27.558 37.5,36.238 37.5,36.238 "/> <polygon fill="#96BF3D" points="37.5,36.238 37.5,36.238 37.5,36.238 "/> <path fill="#FFFFFF" d="M54.963,26.346L37.5,16.454l-17.463,9.892l-1.009,0.605v1.211v19.785l17.463,9.892l1.009,0.605l1.01-0.605 l17.462-9.892V28.063v-1.211L54.963,26.346z M53.953,46.736L38.51,55.519V38.055l15.443-8.781V46.736z M36.491,55.519 l-15.444-8.782V29.273l15.444,8.781V55.519z M22.057,27.558L37.5,18.775l15.444,8.681l0,0L37.5,36.238l0,0l0,0L22.057,27.558 L22.057,27.558z"/> </g> </svg> </pattern><marker id="ProcessOnMarker1151" markerUnits="userSpaceOnUse" orient="auto" markerWidth="20.609529741924973" markerHeight="10.888175666885001" viewBox="-2.3047648709624866 -1.5914908829822711 20.609529741924973 10.888175666885001" refX="16.0" refY="3.8525969504602293"><path id="ProcessOnPath1152" d="M0 3.8525969504602293L8.0 0L16.0 3.8525969504602293L8.0 7.705193900920459Z" stroke="#323232" stroke-width="2.0" fill="#fff"/></marker><marker id="ProcessOnMarker1153" markerUnits="userSpaceOnUse" orient="auto" markerWidth="14.289086868996552" markerHeight="19.055054660878554" viewBox="-0.5877852522924731 -0.8090169943749475 14.289086868996552 19.055054660878554" refX="12.0" refY="8.71851033606433"><path id="ProcessOnPath1154" d="M0 0L12.0 8.71851033606433L0 17.43702067212866" stroke="#323232" stroke-width="2.0" fill="none" transform="matrix(1.0,0.0,0.0,1.0,0.0,0.0)"/></marker><marker id="ProcessOnMarker1157" markerUnits="userSpaceOnUse" orient="auto" markerWidth="20.609529741924973" markerHeight="10.888175666885001" viewBox="-2.3047648709624866 -1.5914908829822711 20.609529741924973 10.888175666885001" refX="16.0" refY="3.8525969504602293"><path id="ProcessOnPath1158" d="M0 3.8525969504602293L8.0 0L16.0 3.8525969504602293L8.0 7.705193900920459Z" stroke="#323232" stroke-width="2.0" fill="#fff"/></marker><marker id="ProcessOnMarker1159" markerUnits="userSpaceOnUse" orient="auto" markerWidth="14.289086868996552" markerHeight="19.055054660878554" viewBox="-0.5877852522924731 -0.8090169943749475 14.289086868996552 19.055054660878554" refX="12.0" refY="8.71851033606433"><path id="ProcessOnPath1160" d="M0 0L12.0 8.71851033606433L0 17.43702067212866" stroke="#323232" stroke-width="2.0" fill="none" transform="matrix(1.0,0.0,0.0,1.0,0.0,0.0)"/></marker><marker id="ProcessOnMarker1163" markerUnits="userSpaceOnUse" orient="auto" markerWidth="20.609529741924973" markerHeight="10.888175666885001" viewBox="-2.3047648709624866 -1.5914908829822711 20.609529741924973 10.888175666885001" refX="16.0" refY="3.8525969504602293"><path id="ProcessOnPath1164" d="M0 3.8525969504602293L8.0 0L16.0 3.8525969504602293L8.0 7.705193900920459Z" stroke="#323232" stroke-width="2.0" fill="#fff"/></marker><marker id="ProcessOnMarker1165" markerUnits="userSpaceOnUse" orient="auto" markerWidth="14.289086868996552" markerHeight="19.055054660878554" viewBox="-0.5877852522924731 -0.8090169943749475 14.289086868996552 19.055054660878554" refX="12.0" refY="8.71851033606433"><path id="ProcessOnPath1166" d="M0 0L12.0 8.71851033606433L0 17.43702067212866" stroke="#323232" stroke-width="2.0" fill="none" transform="matrix(1.0,0.0,0.0,1.0,0.0,0.0)"/></marker><pattern id="ProcessOnPattern1169" patternUnits="userSpaceOnUse" width="75.0" height="75.0" patternTransform="matrix(1.0,0.0,0.0,1.0,0.0,0.0)"><svg version="1.1" id="图层_1" xmlns="http://www.w3.org/2000/svg" xmlns:xlink="http://www.w3.org/1999/xlink" x="0px" y="0px" width="75px" height="75px" viewBox="0 0 75 75" enable-background="new 0 0 75 75" xml:space="preserve"> <g id="Layer_1"> <polygon fill="#FFFFFF" points="37.5,73.789 69.499,55.619 69.499,19.28 37.5,37.45 "/> <polygon fill="#FFFFFF" points="5.502,55.519 37.5,73.688 37.5,37.45 5.502,19.28 "/> <polygon fill="#FFFFFF" points="69.297,19.28 37.5,1.212 5.703,19.28 37.5,37.349 "/> <polygon fill="#FFFFFF" points="37.5,36.238 67.479,19.28 67.378,19.28 "/> <polygon fill="#FFFFFF" points="7.621,19.28 7.521,19.28 37.5,36.238 37.5,36.238 "/> <polygon fill="#FFFFFF" points="37.5,36.238 37.5,36.238 37.5,36.238 "/> <path fill="#444444" d="M69.499,18.069L37.5,0L5.502,18.069l-1.01,0.605v1.211v36.339l31.999,18.169L37.5,75l1.01-0.606 l31.998-18.169V19.886v-1.211L69.499,18.069z M68.489,55.014L38.51,71.972V37.954l29.979-16.958V55.014z M36.491,71.972 L6.511,55.014V20.997l29.98,16.958V71.972z M7.621,19.28L37.5,2.322L67.378,19.28l0,0L37.5,36.238l0,0l0,0L7.621,19.28L7.621,19.28 z"/> <polygon fill="#115193" points="37.602,57.033 54.862,47.241 54.862,27.759 37.602,37.551 "/> <polygon fill="#115193" points="20.138,47.241 37.399,57.033 37.399,37.551 20.138,27.759 "/> <polygon fill="#115193" points="54.66,27.558 37.5,17.766 20.34,27.558 37.5,37.248 "/> <polygon fill="#96BF3D" points="37.5,36.238 52.944,27.558 52.944,27.558 "/> <polygon fill="#96BF3D" points="22.057,27.558 22.057,27.558 37.5,36.238 37.5,36.238 "/> <polygon fill="#96BF3D" points="37.5,36.238 37.5,36.238 37.5,36.238 "/> <path fill="#FFFFFF" d="M54.963,26.346L37.5,16.454l-17.463,9.892l-1.009,0.605v1.211v19.785l17.463,9.892l1.009,0.605l1.01-0.605 l17.462-9.892V28.063v-1.211L54.963,26.346z M53.953,46.736L38.51,55.519V38.055l15.443-8.781V46.736z M36.491,55.519 l-15.444-8.782V29.273l15.444,8.781V55.519z M22.057,27.558L37.5,18.775l15.444,8.681l0,0L37.5,36.238l0,0l0,0L22.057,27.558 L22.057,27.558z"/> </g> </svg> </pattern><marker id="ProcessOnMarker1174" markerUnits="userSpaceOnUse" orient="auto" markerWidth="20.609529741924973" markerHeight="10.888175666885001" viewBox="-2.3047648709624866 -1.5914908829822711 20.609529741924973 10.888175666885001" refX="16.0" refY="3.8525969504602293"><path id="ProcessOnPath1175" d="M0 3.8525969504602293L8.0 0L16.0 3.8525969504602293L8.0 7.705193900920459Z" stroke="#323232" stroke-width="2.0" fill="#fff"/></marker><marker id="ProcessOnMarker1176" markerUnits="userSpaceOnUse" orient="auto" markerWidth="14.289086868996552" markerHeight="19.055054660878554" viewBox="-0.5877852522924731 -0.8090169943749475 14.289086868996552 19.055054660878554" refX="12.0" refY="8.71851033606433"><path id="ProcessOnPath1177" d="M0 0L12.0 8.71851033606433L0 17.43702067212866" stroke="#323232" stroke-width="2.0" fill="none" transform="matrix(1.0,0.0,0.0,1.0,0.0,0.0)"/></marker><marker id="ProcessOnMarker1180" markerUnits="userSpaceOnUse" orient="auto" markerWidth="20.609529741924973" markerHeight="10.888175666885001" viewBox="-2.3047648709624866 -1.5914908829822711 20.609529741924973 10.888175666885001" refX="16.0" refY="3.8525969504602293"><path id="ProcessOnPath1181" d="M0 3.8525969504602293L8.0 0L16.0 3.8525969504602293L8.0 7.705193900920459Z" stroke="#323232" stroke-width="2.0" fill="#fff"/></marker><marker id="ProcessOnMarker1182" markerUnits="userSpaceOnUse" orient="auto" markerWidth="14.289086868996552" markerHeight="19.055054660878554" viewBox="-0.5877852522924731 -0.8090169943749475 14.289086868996552 19.055054660878554" refX="12.0" refY="8.71851033606433"><path id="ProcessOnPath1183" d="M0 0L12.0 8.71851033606433L0 17.43702067212866" stroke="#323232" stroke-width="2.0" fill="none" transform="matrix(1.0,0.0,0.0,1.0,0.0,0.0)"/></marker><marker id="ProcessOnMarker1186" markerUnits="userSpaceOnUse" orient="auto" markerWidth="20.609529741924973" markerHeight="10.888175666885001" viewBox="-2.3047648709624866 -1.5914908829822711 20.609529741924973 10.888175666885001" refX="16.0" refY="3.8525969504602293"><path id="ProcessOnPath1187" d="M0 3.8525969504602293L8.0 0L16.0 3.8525969504602293L8.0 7.705193900920459Z" stroke="#323232" stroke-width="2.0" fill="#fff"/></marker><marker id="ProcessOnMarker1188" markerUnits="userSpaceOnUse" orient="auto" markerWidth="14.289086868996552" markerHeight="19.055054660878554" viewBox="-0.5877852522924731 -0.8090169943749475 14.289086868996552 19.055054660878554" refX="12.0" refY="8.71851033606433"><path id="ProcessOnPath1189" d="M0 0L12.0 8.71851033606433L0 17.43702067212866" stroke="#323232" stroke-width="2.0" fill="none" transform="matrix(1.0,0.0,0.0,1.0,0.0,0.0)"/></marker><marker id="ProcessOnMarker1192" markerUnits="userSpaceOnUse" orient="auto" markerWidth="20.609529741924973" markerHeight="10.888175666885001" viewBox="-2.3047648709624866 -1.5914908829822711 20.609529741924973 10.888175666885001" refX="16.0" refY="3.8525969504602293"><path id="ProcessOnPath1193" d="M0 3.8525969504602293L8.0 0L16.0 3.8525969504602293L8.0 7.705193900920459Z" stroke="#323232" stroke-width="2.0" fill="#fff"/></marker><marker id="ProcessOnMarker1194" markerUnits="userSpaceOnUse" orient="auto" markerWidth="14.289086868996552" markerHeight="19.055054660878554" viewBox="-0.5877852522924731 -0.8090169943749475 14.289086868996552 19.055054660878554" refX="12.0" refY="8.71851033606433"><path id="ProcessOnPath1195" d="M0 0L12.0 8.71851033606433L0 17.43702067212866" stroke="#323232" stroke-width="2.0" fill="none" transform="matrix(1.0,0.0,0.0,1.0,0.0,0.0)"/></marker><marker id="ProcessOnMarker1198" markerUnits="userSpaceOnUse" orient="auto" markerWidth="20.609529741924973" markerHeight="10.888175666885001" viewBox="-2.3047648709624866 -1.5914908829822711 20.609529741924973 10.888175666885001" refX="16.0" refY="3.8525969504602293"><path id="ProcessOnPath1199" d="M0 3.8525969504602293L8.0 0L16.0 3.8525969504602293L8.0 7.705193900920459Z" stroke="#323232" stroke-width="2.0" fill="#fff"/></marker><marker id="ProcessOnMarker1200" markerUnits="userSpaceOnUse" orient="auto" markerWidth="14.289086868996552" markerHeight="19.055054660878554" viewBox="-0.5877852522924731 -0.8090169943749475 14.289086868996552 19.055054660878554" refX="12.0" refY="8.71851033606433"><path id="ProcessOnPath1201" d="M0 0L12.0 8.71851033606433L0 17.43702067212866" stroke="#323232" stroke-width="2.0" fill="none" transform="matrix(1.0,0.0,0.0,1.0,0.0,0.0)"/></marker></defs><g id="ProcessOnG1002"><path id="ProcessOnPath1003" d="M186.5178571428568 53.69047619047619H1956.6071428571438V1398.791666666665H186.51785714285688V53.69047619047615Z" fill="none"/><g id="ProcessOnG1004"><g id="ProcessOnG1005" transform="matrix(1.0,0.0,0.0,1.0,1467.9387223639485,768.2138601826771)" opacity="1.0"><path id="ProcessOnPath1006" d="M0.0 0.0L369.01785714285734 0.0L369.01785714285734 254.4084821428579L0.0 254.4084821428579Z" stroke="#323232" stroke-width="0.0" stroke-dasharray="none" opacity="1.0" fill="url(#ProcessOnPattern1007)"/></g><g id="ProcessOnG1008" transform="matrix(1.0,0.0,0.0,1.0,1486.5549178004533,1092.8530216721083)" opacity="1.0"><path id="ProcessOnPath1009" d="M0.0 0.0L384.44508219954673 0.0L384.44508219954673 260.7145915764172L0.0 260.7145915764172Z" stroke="#323232" stroke-width="0.0" stroke-dasharray="none" opacity="1.0" fill="url(#ProcessOnPattern1010)"/></g><g id="ProcessOnG1011" transform="matrix(1.0,0.0,0.0,1.0,1342.8571428571438,368.0480615715695)" opacity="1.0"><path id="ProcessOnPath1012" d="M0.0 0.0L593.75 0.0L593.75 330.0L0.0 330.0Z" stroke="#323232" stroke-width="0.0" stroke-dasharray="none" opacity="1.0" fill="url(#ProcessOnPattern1013)"/></g><g id="ProcessOnG1014" transform="matrix(1.0,0.0,0.0,1.0,922.6302083333335,73.69047619047619)" opacity="1.0"><path id="ProcessOnPath1015" d="M0.0 0.0L375.76785714285506 0.0L375.76785714285506 336.25L0.0 336.25Z" stroke="#323232" stroke-width="0.0" stroke-dasharray="none" opacity="1.0" fill="url(#ProcessOnPattern1016)"/></g><g id="ProcessOnG1017" transform="matrix(1.0,0.0,0.0,1.0,1562.7338169642862,420.0)" opacity="1.0"><path id="ProcessOnPath1018" d="M0.0 0.0L328.26618303571377 0.0L328.26618303571377 252.6565596583032L0.0 252.6565596583032Z" stroke="#323232" stroke-width="0.0" stroke-dasharray="none" opacity="1.0" fill="url(#ProcessOnPattern1019)"/></g><g id="ProcessOnG1020" transform="matrix(1.0,0.0,0.0,1.0,206.5178571428568,959.3901578913852)" opacity="1.0"><path id="ProcessOnPath1021" d="M0.0 0.0L390.0 0.0L390.0 387.3571428571423L0.0 387.3571428571423Z" stroke="#323232" stroke-width="0.0" stroke-dasharray="none" opacity="1.0" fill="url(#ProcessOnPattern1022)"/></g><g id="ProcessOnG1023" transform="matrix(1.0,0.0,0.0,1.0,229.64285714285757,611.342704428709)" opacity="1.0"><path id="ProcessOnPath1024" d="M0.0 0.0L341.24999999999955 0.0L341.24999999999955 268.07142857142844L0.0 268.07142857142844Z" stroke="#323232" stroke-width="0.0" stroke-dasharray="none" opacity="1.0" fill="url(#ProcessOnPattern1025)"/></g><g id="ProcessOnG1026" transform="matrix(1.0,0.0,0.0,1.0,229.09226190476227,252.08482142857443)" opacity="1.0"><path id="ProcessOnPath1027" d="M0.0 0.0L365.2678571428569 0.0L365.2678571428569 254.32142857142776L0.0 254.32142857142776Z" stroke="#323232" stroke-width="0.0" stroke-dasharray="none" opacity="1.0" fill="url(#ProcessOnPattern1028)"/></g><g id="ProcessOnG1029" transform="matrix(1.0,0.0,0.0,1.0,423.86734693877514,703.1290950509248)" opacity="1.0"><path id="ProcessOnPath1030" d="M0.0 0.0L75.0 0.0L75.0 75.0L0.0 75.0Z" stroke="#323232" stroke-width="0.0" stroke-dasharray="none" opacity="1.0" fill="url(#ProcessOnPattern1031)"/><g id="ProcessOnG1032" transform="matrix(1.0,0.0,0.0,1.0,-20.0,73.75)"><text id="ProcessOnText1033" fill="#000000" font-weight="normal" font-style="normal" text-decoration="blink" font-family="微软雅黑" text-anchor="middle" font-size="13" x="57.5" y="13.325">SharedComponen</text><text id="ProcessOnText1034" fill="#000000" font-weight="normal" font-style="normal" text-decoration="blink" font-family="微软雅黑" text-anchor="middle" font-size="13" x="57.5" y="29.575">t.js</text></g></g><g id="ProcessOnG1035" transform="matrix(1.0,0.0,0.0,1.0,1617.5458652210912,448.8752299389195)" opacity="1.0"><path id="ProcessOnPath1036" d="M0.0 0.0L75.0 0.0L75.0 75.0L0.0 75.0Z" stroke="#323232" stroke-width="0.0" stroke-dasharray="none" opacity="1.0" fill="url(#ProcessOnPattern1037)"/><g id="ProcessOnG1038" transform="matrix(1.0,0.0,0.0,1.0,-20.0,73.75)"><text id="ProcessOnText1039" fill="#000000" font-weight="normal" font-style="normal" text-decoration="blink" font-family="微软雅黑" text-anchor="middle" font-size="13" x="57.5" y="13.325">HomeFeature2.scs</text><text id="ProcessOnText1040" fill="#000000" font-weight="normal" font-style="normal" text-decoration="blink" font-family="微软雅黑" text-anchor="middle" font-size="13" x="57.5" y="29.575">s</text></g></g><g id="ProcessOnG1041" transform="matrix(1.0,0.0,0.0,1.0,1160.7976190476184,137.13690476190513)" opacity="1.0"><path id="ProcessOnPath1042" d="M0.0 0.0L75.0 0.0L75.0 75.0L0.0 75.0Z" stroke="#323232" stroke-width="0.0" stroke-dasharray="none" opacity="1.0" fill="url(#ProcessOnPattern1043)"/><g id="ProcessOnG1044" transform="matrix(1.0,0.0,0.0,1.0,-20.0,81.875)"><text id="ProcessOnText1045" fill="#000000" font-weight="normal" font-style="normal" text-decoration="blink" font-family="微软雅黑" text-anchor="middle" font-size="13" x="57.5" y="13.325">HomeFeature2.js</text></g></g><g id="ProcessOnG1046" transform="matrix(1.0,0.0,0.0,1.0,970.6190476190473,138.76190476190507)" opacity="1.0"><path id="ProcessOnPath1047" d="M0.0 0.0L75.0 0.0L75.0 75.0L0.0 75.0Z" stroke="#323232" stroke-width="0.0" stroke-dasharray="none" opacity="1.0" fill="url(#ProcessOnPattern1048)"/><g id="ProcessOnG1049" transform="matrix(1.0,0.0,0.0,1.0,-20.0,81.875)"><text id="ProcessOnText1050" fill="#000000" font-weight="normal" font-style="normal" text-decoration="blink" font-family="微软雅黑" text-anchor="middle" font-size="13" x="57.5" y="13.325">HomeFeature1.js</text></g></g><g id="ProcessOnG1051" transform="matrix(1.0,0.0,0.0,1.0,439.7172619047619,334.97767857143214)" opacity="1.0"><path id="ProcessOnPath1052" d="M0.0 0.0L75.0 0.0L75.0 75.0L0.0 75.0Z" stroke="#323232" stroke-width="0.0" stroke-dasharray="0.0 0.0" opacity="1.0" fill="url(#ProcessOnPattern1053)"/><g id="ProcessOnG1054" transform="matrix(1.0,0.0,0.0,1.0,-20.0,81.875)"><text id="ProcessOnText1055" fill="#000000" font-weight="normal" font-style="normal" text-decoration="blink" font-family="微软雅黑" text-anchor="middle" font-size="13" x="57.5" y="13.325">UniqueFeature.js</text></g></g><g id="ProcessOnG1056" transform="matrix(1.0,0.0,0.0,1.0,300.6101190476194,330.9419642857171)" opacity="1.0"><path id="ProcessOnPath1057" d="M0.0 0.0L75.0 0.0L75.0 75.0L0.0 75.0Z" stroke="#323232" stroke-width="0.0" stroke-dasharray="none" opacity="1.0" fill="url(#ProcessOnPattern1058)"/><g id="ProcessOnG1059" transform="matrix(1.0,0.0,0.0,1.0,-20.0,81.875)"><text id="ProcessOnText1060" fill="#000000" font-weight="normal" font-style="normal" text-decoration="blink" font-family="微软雅黑" text-anchor="middle" font-size="13" x="57.5" y="13.325">catalog.js</text></g></g><g id="ProcessOnG1061" transform="matrix(1.0,0.0,0.0,1.0,1069.264136904762,270.9455782312942)" opacity="1.0"><path id="ProcessOnPath1062" d="M0.0 0.0L75.0 0.0L75.0 75.0L0.0 75.0Z" stroke="#323232" stroke-width="0.0" stroke-dasharray="none" opacity="1.0" fill="url(#ProcessOnPattern1063)"/><g id="ProcessOnG1064" transform="matrix(1.0,0.0,0.0,1.0,-20.0,81.875)"><text id="ProcessOnText1065" fill="#000000" font-weight="normal" font-style="normal" text-decoration="blink" font-family="微软雅黑" text-anchor="middle" font-size="13" x="57.5" y="13.325">home.js</text></g></g><g id="ProcessOnG1066" transform="matrix(1.0,0.0,0.0,1.0,285.81879202118336,702.0480615715695)" opacity="1.0"><path id="ProcessOnPath1067" d="M0.0 0.0L75.0 0.0L75.0 75.0L0.0 75.0Z" stroke="#323232" stroke-width="0.0" stroke-dasharray="none" opacity="1.0" fill="url(#ProcessOnPattern1068)"/><g id="ProcessOnG1069" transform="matrix(1.0,0.0,0.0,1.0,-20.0,81.875)"><text id="ProcessOnText1070" fill="#000000" font-weight="normal" font-style="normal" text-decoration="blink" font-family="微软雅黑" text-anchor="middle" font-size="13" x="57.5" y="13.325">logging.js</text></g></g><g id="ProcessOnG1071" transform="matrix(1.0,0.0,0.0,1.0,424.20408163265495,1010.7227471770956)" opacity="1.0"><path id="ProcessOnPath1072" d="M0.0 0.0L75.0 0.0L75.0 75.0L0.0 75.0Z" stroke="#323232" stroke-width="0.0" stroke-dasharray="none" opacity="1.0" fill="url(#ProcessOnPattern1073)"/><g id="ProcessOnG1074" transform="matrix(1.0,0.0,0.0,1.0,-20.0,81.875)"><text id="ProcessOnText1075" fill="#000000" font-weight="normal" font-style="normal" text-decoration="blink" font-family="微软雅黑" text-anchor="middle" font-size="13" x="57.5" y="13.325">underscore.js</text></g></g><g id="ProcessOnG1076" transform="matrix(1.0,0.0,0.0,1.0,1760.099330357144,447.8752299389195)" opacity="1.0"><path id="ProcessOnPath1077" d="M0.0 0.0L75.0 0.0L75.0 75.0L0.0 75.0Z" stroke="#323232" stroke-width="0.0" stroke-dasharray="none" opacity="1.0" fill="url(#ProcessOnPattern1078)"/><g id="ProcessOnG1079" transform="matrix(1.0,0.0,0.0,1.0,-20.0,73.75)"><text id="ProcessOnText1080" fill="#000000" font-weight="normal" font-style="normal" text-decoration="blink" font-family="微软雅黑" text-anchor="middle" font-size="13" x="57.5" y="13.325">HomeFeature1.scs</text><text id="ProcessOnText1081" fill="#000000" font-weight="normal" font-style="normal" text-decoration="blink" font-family="微软雅黑" text-anchor="middle" font-size="13" x="57.5" y="29.575">s</text></g></g><g id="ProcessOnG1082" transform="matrix(1.0,0.0,0.0,1.0,1574.4656320861677,1178.710317460317)" opacity="1.0"><path id="ProcessOnPath1083" d="M0.0 0.0L75.0 0.0L75.0 75.0L0.0 75.0Z" stroke="#323232" stroke-width="0.0" stroke-dasharray="none" opacity="1.0" fill="url(#ProcessOnPattern1084)"/><g id="ProcessOnG1085" transform="matrix(1.0,0.0,0.0,1.0,-20.0,73.75)"><text id="ProcessOnText1086" fill="#000000" font-weight="normal" font-style="normal" text-decoration="blink" font-family="微软雅黑" text-anchor="middle" font-size="13" x="57.5" y="13.325">SharedComponen</text><text id="ProcessOnText1087" fill="#000000" font-weight="normal" font-style="normal" text-decoration="blink" font-family="微软雅黑" text-anchor="middle" font-size="13" x="57.5" y="29.575">t.scss</text></g></g><g id="ProcessOnG1088" transform="matrix(1.0,0.0,0.0,1.0,1684.5329241071436,553.4932146327958)" opacity="1.0"><path id="ProcessOnPath1089" d="M0.0 0.0L75.0 0.0L75.0 75.0L0.0 75.0Z" stroke="#323232" stroke-width="0.0" stroke-dasharray="none" opacity="1.0" fill="url(#ProcessOnPattern1090)"/><g id="ProcessOnG1091" transform="matrix(1.0,0.0,0.0,1.0,-20.0,81.875)"><text id="ProcessOnText1092" fill="#000000" font-weight="normal" font-style="normal" text-decoration="blink" font-family="微软雅黑" text-anchor="middle" font-size="13" x="57.5" y="13.325">home.scss</text></g></g><g id="ProcessOnG1093" transform="matrix(1.0,0.0,0.0,1.0,1543.5458652210912,851.5637485755352)" opacity="1.0"><path id="ProcessOnPath1094" d="M0.0 0.0L75.0 0.0L75.0 75.0L0.0 75.0Z" stroke="#323232" stroke-width="0.0" stroke-dasharray="none" opacity="1.0" fill="url(#ProcessOnPattern1095)"/><g id="ProcessOnG1096" transform="matrix(1.0,0.0,0.0,1.0,-20.0,81.875)"><text id="ProcessOnText1097" fill="#000000" font-weight="normal" font-style="normal" text-decoration="blink" font-family="微软雅黑" text-anchor="middle" font-size="13" x="57.5" y="13.325">catalog.scss</text></g></g><g id="ProcessOnG1098" transform="matrix(1.0,0.0,0.0,1.0,809.1221362555871,439.1295571611141)" opacity="1.0"><path id="ProcessOnPath1099" d="M0.0 0.0L75.0 0.0L75.0 75.0L0.0 75.0Z" stroke="#323232" stroke-width="0.0" stroke-dasharray="none" opacity="1.0" fill="url(#ProcessOnPattern1100)"/><g id="ProcessOnG1101" transform="matrix(1.0,0.0,0.0,1.0,-20.0,81.875)"><text id="ProcessOnText1102" fill="#000000" font-weight="normal" font-style="normal" text-decoration="blink" font-family="微软雅黑" text-anchor="middle" font-size="13" x="57.5" y="13.325">home.eac0.js</text></g></g><g id="ProcessOnG1103" transform="matrix(1.0,0.0,0.0,1.0,808.1988820795588,635.0119047619052)" opacity="1.0"><path id="ProcessOnPath1104" d="M0.0 0.0L75.0 0.0L75.0 75.0L0.0 75.0Z" stroke="#323232" stroke-width="0.0" stroke-dasharray="none" opacity="1.0" fill="url(#ProcessOnPattern1105)"/><g id="ProcessOnG1106" transform="matrix(1.0,0.0,0.0,1.0,-20.0,81.875)"><text id="ProcessOnText1107" fill="#000000" font-weight="normal" font-style="normal" text-decoration="blink" font-family="微软雅黑" text-anchor="middle" font-size="13" x="57.5" y="13.325">catalog.680e.js</text></g></g><g id="ProcessOnG1108" transform="matrix(1.0,0.0,0.0,1.0,805.021751209885,1052.6774740366623)" opacity="1.0"><path id="ProcessOnPath1109" d="M0.0 0.0L75.0 0.0L75.0 75.0L0.0 75.0Z" stroke="#323232" stroke-width="0.0" stroke-dasharray="none" opacity="1.0" fill="url(#ProcessOnPattern1110)"/><g id="ProcessOnG1111" transform="matrix(1.0,0.0,0.0,1.0,-20.0,81.875)"><text id="ProcessOnText1112" fill="#000000" font-weight="normal" font-style="normal" text-decoration="blink" font-family="微软雅黑" text-anchor="middle" font-size="13" x="57.5" y="13.325">vendor.1edb.js</text></g></g><g id="ProcessOnG1113" transform="matrix(1.0,0.0,0.0,1.0,805.9671511451828,828.194270569927)" opacity="1.0"><path id="ProcessOnPath1114" d="M0.0 0.0L75.0 0.0L75.0 75.0L0.0 75.0Z" stroke="#323232" stroke-width="0.0" stroke-dasharray="none" opacity="1.0" fill="url(#ProcessOnPattern1115)"/><g id="ProcessOnG1116" transform="matrix(1.0,0.0,0.0,1.0,-20.0,81.875)"><text id="ProcessOnText1117" fill="#000000" font-weight="normal" font-style="normal" text-decoration="blink" font-family="微软雅黑" text-anchor="middle" font-size="13" x="57.5" y="13.325">commons.f1a0.js</text></g></g><g id="ProcessOnG1118" transform="matrix(1.0,0.0,0.0,1.0,805.0340778729849,1280.666666666665)" opacity="1.0"><path id="ProcessOnPath1119" d="M0.0 0.0L75.0 0.0L75.0 75.0L0.0 75.0Z" stroke="#323232" stroke-width="0.0" stroke-dasharray="none" opacity="1.0" fill="url(#ProcessOnPattern1120)"/><g id="ProcessOnG1121" transform="matrix(1.0,0.0,0.0,1.0,-20.0,81.875)"><text id="ProcessOnText1122" fill="#000000" font-weight="normal" font-style="normal" text-decoration="blink" font-family="微软雅黑" text-anchor="middle" font-size="13" x="57.5" y="13.325">manifest.6df3.js</text></g></g><g id="ProcessOnG1123" transform="matrix(1.0,0.0,0.0,1.0,1087.1785714285718,564.7796814397105)" opacity="1.0"><path id="ProcessOnPath1124" d="M0.0 0.0L75.0 0.0L75.0 75.0L0.0 75.0Z" stroke="#323232" stroke-width="0.0" stroke-dasharray="none" opacity="1.0" fill="url(#ProcessOnPattern1125)"/><g id="ProcessOnG1126" transform="matrix(1.0,0.0,0.0,1.0,-20.0,81.875)"><text id="ProcessOnText1127" fill="#000000" font-weight="normal" font-style="normal" text-decoration="blink" font-family="微软雅黑" text-anchor="middle" font-size="13" x="57.5" y="13.325">home.aef7.css</text></g></g><g id="ProcessOnG1128" transform="matrix(1.0,0.0,0.0,1.0,1086.2053256487784,857.918101254106)" opacity="1.0"><path id="ProcessOnPath1129" d="M0.0 0.0L75.0 0.0L75.0 75.0L0.0 75.0Z" stroke="#323232" stroke-width="0.0" stroke-dasharray="none" opacity="1.0" fill="url(#ProcessOnPattern1130)"/><g id="ProcessOnG1131" transform="matrix(1.0,0.0,0.0,1.0,-20.0,81.875)"><text id="ProcessOnText1132" fill="#000000" font-weight="normal" font-style="normal" text-decoration="blink" font-family="微软雅黑" text-anchor="middle" font-size="13" x="57.5" y="13.325">catalog.1c83.css</text></g></g><g id="ProcessOnG1133" transform="matrix(1.0,0.0,0.0,1.0,1084.210062008343,1185.710317460317)" opacity="1.0"><path id="ProcessOnPath1134" d="M0.0 0.0L75.0 0.0L75.0 75.0L0.0 75.0Z" stroke="#323232" stroke-width="0.0" stroke-dasharray="none" opacity="1.0" fill="url(#ProcessOnPattern1135)"/><g id="ProcessOnG1136" transform="matrix(1.0,0.0,0.0,1.0,-20.0,73.75)"><text id="ProcessOnText1137" fill="#000000" font-weight="normal" font-style="normal" text-decoration="blink" font-family="微软雅黑" text-anchor="middle" font-size="13" x="57.5" y="13.325">commons.ae03.cs</text><text id="ProcessOnText1138" fill="#000000" font-weight="normal" font-style="normal" text-decoration="blink" font-family="微软雅黑" text-anchor="middle" font-size="13" x="57.5" y="29.575">s</text></g></g><g id="ProcessOnG1139" transform="matrix(1.0,0.0,0.0,1.0,277.95408163265455,1011.6747561056665)" opacity="1.0"><path id="ProcessOnPath1140" d="M0.0 0.0L75.0 0.0L75.0 75.0L0.0 75.0Z" stroke="#323232" stroke-width="0.0" stroke-dasharray="none" opacity="1.0" fill="url(#ProcessOnPattern1141)"/><g id="ProcessOnG1142" transform="matrix(1.0,0.0,0.0,1.0,-20.0,81.875)"><text id="ProcessOnText1143" fill="#000000" font-weight="normal" font-style="normal" text-decoration="blink" font-family="微软雅黑" text-anchor="middle" font-size="13" x="57.5" y="13.325">css-base.js</text></g></g><g id="ProcessOnG1144" transform="matrix(1.0,0.0,0.0,1.0,274.2040816326546,1181.258427994616)" opacity="1.0"><path id="ProcessOnPath1145" d="M0.0 0.0L75.0 0.0L75.0 75.0L0.0 75.0Z" stroke="#323232" stroke-width="0.0" stroke-dasharray="none" opacity="1.0" fill="url(#ProcessOnPattern1146)"/><g id="ProcessOnG1147" transform="matrix(1.0,0.0,0.0,1.0,-20.0,81.875)"><text id="ProcessOnText1148" fill="#000000" font-weight="normal" font-style="normal" text-decoration="blink" font-family="微软雅黑" text-anchor="middle" font-size="13" x="57.5" y="13.325">addStyles.js</text></g></g><g id="ProcessOnG1149"><path id="ProcessOnPath1150" d="M786.7169863389225 1090.1774740366618L700.7698041763708 1090.1774740366618L700.7698041763708 1153.068729319956L596.5178571428568 1153.068729319956" stroke="#323232" stroke-width="2.0" stroke-dasharray="none" fill="none" marker-start="url(#ProcessOnMarker1151)" marker-end="url(#ProcessOnMarker1153)"/></g><g id="ProcessOnG1155"><path id="ProcessOnPath1156" d="M1177.5148268793055 1223.210317460317L1322.882489904398 1223.210317460317L1322.882489904398 1223.210317460317L1486.5549178004533 1223.210317460317" stroke="#323232" stroke-width="2.0" stroke-dasharray="none" fill="none" marker-start="url(#ProcessOnMarker1157)" marker-end="url(#ProcessOnMarker1159)"/></g><g id="ProcessOnG1161"><path id="ProcessOnPath1162" d="M1180.4833362995341 602.2796814397105L1252.5178571428578 602.2796814397105L1252.5178571428578 533.0480615715699L1342.8571428571438 533.0480615715699" stroke="#323232" stroke-width="2.0" stroke-dasharray="none" fill="none" marker-start="url(#ProcessOnMarker1163)" marker-end="url(#ProcessOnMarker1165)"/></g><g id="ProcessOnG1167" transform="matrix(1.0,0.0,0.0,1.0,1702.2053571428596,1178.710317460317)" opacity="1.0"><path id="ProcessOnPath1168" d="M0.0 0.0L75.0 0.0L75.0 75.0L0.0 75.0Z" stroke="#323232" stroke-width="0.0" stroke-dasharray="none" opacity="1.0" fill="url(#ProcessOnPattern1169)"/><g id="ProcessOnG1170" transform="matrix(1.0,0.0,0.0,1.0,-20.0,81.875)"><text id="ProcessOnText1171" fill="#000000" font-weight="normal" font-style="normal" text-decoration="blink" font-family="微软雅黑" text-anchor="middle" font-size="13" x="57.5" y="13.325">hint.css</text></g></g><g id="ProcessOnG1172"><path id="ProcessOnPath1173" d="M846.6221362555871 420.82479229015166L846.6221362555871 241.8154761904761L922.6302083333335 241.8154761904761" stroke="#323232" stroke-width="2.0" stroke-dasharray="none" fill="none" marker-start="url(#ProcessOnMarker1174)" marker-end="url(#ProcessOnMarker1176)"/></g><g id="ProcessOnG1178"><path id="ProcessOnPath1179" d="M1316.7028303471511 241.8154761904761L1738.6512111459817 241.8154761904761L1738.6512111459817 420.70749718107413" stroke="#323232" stroke-width="2.0" stroke-dasharray="10.0 4.0" fill="none" marker-start="url(#ProcessOnMarker1180)" marker-end="url(#ProcessOnMarker1182)"/></g><g id="ProcessOnG1184"><path id="ProcessOnPath1185" d="M789.8941172085963 672.5119047619052L701.279500563589 672.5119047619052L701.279500563589 379.2455357142889L594.360119047619 379.2455357142889" stroke="#323232" stroke-width="2.0" stroke-dasharray="none" fill="none" marker-start="url(#ProcessOnMarker1186)" marker-end="url(#ProcessOnMarker1188)"/></g><g id="ProcessOnG1190"><path id="ProcessOnPath1191" d="M787.6623862742204 865.694270569927L667.1502422392581 865.694270569927L667.1502422392581 790.0L528.3333333333334 790.0" stroke="#323232" stroke-width="2.0" stroke-dasharray="none" fill="none" marker-start="url(#ProcessOnMarker1192)" marker-end="url(#ProcessOnMarker1194)"/></g><g id="ProcessOnG1196"><path id="ProcessOnPath1197" d="M1179.510090519741 895.418101254106L1314.5720240063633 895.418101254106L1314.5720240063633 895.418101254106L1467.9387223639485 895.418101254106" stroke="#323232" stroke-width="2.0" stroke-dasharray="none" fill="none" marker-start="url(#ProcessOnMarker1198)" marker-end="url(#ProcessOnMarker1200)"/></g></g></g></svg>